<?xml version="1.0" encoding="UTF-8" standalone="no"?>
<!-- Created with Inkscape (http://www.inkscape.org/) -->

<svg
   xmlns:dc="http://purl.org/dc/elements/1.1/"
   xmlns:cc="http://creativecommons.org/ns#"
   xmlns:rdf="http://www.w3.org/1999/02/22-rdf-syntax-ns#"
   xmlns:svg="http://www.w3.org/2000/svg"
   xmlns="http://www.w3.org/2000/svg"
   version="1.1"
   width="609.79156"
   height="295.46878"
   id="svg2">
  <defs
     id="defs4" />
  <metadata
     id="metadata7">
    <rdf:RDF>
      <cc:Work
         rdf:about="">
        <dc:format>image/svg+xml</dc:format>
        <dc:type
           rdf:resource="http://purl.org/dc/dcmitype/StillImage" />
        <dc:title></dc:title>
      </cc:Work>
    </rdf:RDF>
  </metadata>
  <g
     transform="translate(21.006827,-35.863183)"
     id="layer1">
    <rect
       width="248.57143"
       height="248.57143"
       ry="0"
       x="28.571428"
       y="47.362183"
       id="rect2987"
       style="color:#000000;fill:none;stroke:#000000;stroke-width:2.99799991;stroke-linecap:round;stroke-linejoin:round;stroke-miterlimit:10;stroke-opacity:1;stroke-dasharray:none;stroke-dashoffset:0;marker:none;visibility:visible;display:inline;overflow:visible;enable-background:accumulate" />
    <path
       d="m -145.71429,137.71933 a 3.2142856,3.2142856 0 1 1 -6.42857,0 3.2142856,3.2142856 0 1 1 6.42857,0 z"
       transform="translate(362.14286,-45.000003)"
       id="path3775"
       style="color:#000000;fill:#0000ff;fill-opacity:1;stroke:#000000;stroke-width:1;stroke-linecap:round;stroke-linejoin:round;stroke-miterlimit:10;stroke-opacity:1;stroke-dasharray:none;stroke-dashoffset:0;marker:none;visibility:visible;display:inline;overflow:visible;enable-background:accumulate" />
    <path
       d="m -145.71429,137.71933 a 3.2142856,3.2142856 0 1 1 -6.42857,0 3.2142856,3.2142856 0 1 1 6.42857,0 z"
       transform="translate(385.35715,-29.642866)"
       id="path3775-5"
       style="color:#000000;fill:#0000ff;fill-opacity:1;stroke:#000000;stroke-width:1;stroke-linecap:round;stroke-linejoin:round;stroke-miterlimit:10;stroke-opacity:1;stroke-dasharray:none;stroke-dashoffset:0;marker:none;visibility:visible;display:inline;overflow:visible;enable-background:accumulate" />
    <path
       d="m -145.71429,137.71933 a 3.2142856,3.2142856 0 1 1 -6.42857,0 3.2142856,3.2142856 0 1 1 6.42857,0 z"
       transform="translate(399.64286,48.214278)"
       id="path3775-6"
       style="color:#000000;fill:#0000ff;fill-opacity:1;stroke:#000000;stroke-width:1;stroke-linecap:round;stroke-linejoin:round;stroke-miterlimit:10;stroke-opacity:1;stroke-dasharray:none;stroke-dashoffset:0;marker:none;visibility:visible;display:inline;overflow:visible;enable-background:accumulate" />
    <path
       d="m -145.71429,137.71933 a 3.2142856,3.2142856 0 1 1 -6.42857,0 3.2142856,3.2142856 0 1 1 6.42857,0 z"
       transform="translate(363.92857,106.78571)"
       id="path3775-2"
       style="color:#000000;fill:#0000ff;fill-opacity:1;stroke:#000000;stroke-width:1;stroke-linecap:round;stroke-linejoin:round;stroke-miterlimit:10;stroke-opacity:1;stroke-dasharray:none;stroke-dashoffset:0;marker:none;visibility:visible;display:inline;overflow:visible;enable-background:accumulate" />
    <path
       d="m -145.71429,137.71933 a 3.2142856,3.2142856 0 1 1 -6.42857,0 3.2142856,3.2142856 0 1 1 6.42857,0 z"
       transform="translate(343.21429,121.78571)"
       id="path3775-1"
       style="color:#000000;fill:#0000ff;fill-opacity:1;stroke:#000000;stroke-width:1;stroke-linecap:round;stroke-linejoin:round;stroke-miterlimit:10;stroke-opacity:1;stroke-dasharray:none;stroke-dashoffset:0;marker:none;visibility:visible;display:inline;overflow:visible;enable-background:accumulate" />
    <path
       d="m 152.85714,47.005038 0,249.285712"
       id="path3816"
       style="fill:none;stroke:#000000;stroke-width:1px;stroke-linecap:butt;stroke-linejoin:miter;stroke-opacity:1" />
    <path
       d="m 28.928568,171.6479 247.857142,0"
       id="path3818"
       style="fill:none;stroke:#000000;stroke-width:1px;stroke-linecap:butt;stroke-linejoin:miter;stroke-opacity:1" />
    <text
       x="136.93144"
       y="319.90814"
       id="text3865"
       xml:space="preserve"
       style="font-size:25px;font-style:normal;font-variant:normal;font-weight:normal;font-stretch:normal;text-align:start;line-height:125%;letter-spacing:0px;word-spacing:0px;writing-mode:lr-tb;text-anchor:start;fill:#000000;fill-opacity:1;stroke:none;font-family:Liberation Sans;-inkscape-font-specification:Liberation Sans"><tspan
         x="136.93144"
         y="319.90814"
         id="tspan3867">F1</tspan></text>
    <text
       x="-7.6014576"
       y="179.0802"
       id="text3865-9"
       xml:space="preserve"
       style="font-size:25px;font-style:normal;font-variant:normal;font-weight:normal;font-stretch:normal;text-align:start;line-height:125%;letter-spacing:0px;word-spacing:0px;writing-mode:lr-tb;text-anchor:start;fill:#000000;fill-opacity:1;stroke:none;font-family:Liberation Sans;-inkscape-font-specification:Liberation Sans"><tspan
         x="-7.6014576"
         y="179.0802"
         id="tspan3867-7">F2</tspan></text>
    <path
       d="m -145.71429,137.71933 a 3.2142856,3.2142856 0 1 1 -6.42857,0 3.2142856,3.2142856 0 1 1 6.42857,0 z"
       transform="translate(386.07143,-48.214291)"
       id="path3775-4"
       style="color:#000000;fill:#0000ff;fill-opacity:1;stroke:#000000;stroke-width:1;stroke-linecap:round;stroke-linejoin:round;stroke-miterlimit:10;stroke-opacity:1;stroke-dasharray:none;stroke-dashoffset:0;marker:none;visibility:visible;display:inline;overflow:visible;enable-background:accumulate" />
    <path
       d="m -145.71429,137.71933 a 3.2142856,3.2142856 0 1 1 -6.42857,0 3.2142856,3.2142856 0 1 1 6.42857,0 z"
       transform="translate(350.35715,97.499995)"
       id="path3775-27"
       style="color:#000000;fill:#0000ff;fill-opacity:1;stroke:#000000;stroke-width:1;stroke-linecap:round;stroke-linejoin:round;stroke-miterlimit:10;stroke-opacity:1;stroke-dasharray:none;stroke-dashoffset:0;marker:none;visibility:visible;display:inline;overflow:visible;enable-background:accumulate" />
    <path
       d="m -145.71429,137.71933 a 3.2142856,3.2142856 0 1 1 -6.42857,0 3.2142856,3.2142856 0 1 1 6.42857,0 z"
       transform="matrix(0.99942387,0.03394009,-0.03394009,0.99942387,384.65998,111.59961)"
       id="path3775-2-5"
       style="color:#000000;fill:#0000ff;fill-opacity:1;stroke:#000000;stroke-width:1;stroke-linecap:round;stroke-linejoin:round;stroke-miterlimit:10;stroke-opacity:1;stroke-dasharray:none;stroke-dashoffset:0;marker:none;visibility:visible;display:inline;overflow:visible;enable-background:accumulate" />
    <rect
       width="248.57143"
       height="248.57143"
       ry="0"
       x="328.71429"
       y="47.362183"
       id="rect2987-0"
       style="color:#000000;fill:none;stroke:#000000;stroke-width:2.99799991;stroke-linecap:round;stroke-linejoin:round;stroke-miterlimit:10;stroke-opacity:1;stroke-dasharray:none;stroke-dashoffset:0;marker:none;visibility:visible;display:inline;overflow:visible;enable-background:accumulate" />
    <path
       d="m 516.57144,92.719328 a 3.2142856,3.2142856 0 1 1 -6.42857,0 3.2142856,3.2142856 0 1 1 6.42857,0 z"
       id="path3775-59"
       style="color:#000000;fill:#0000ff;fill-opacity:1;stroke:#000000;stroke-width:1;stroke-linecap:round;stroke-linejoin:round;stroke-miterlimit:10;stroke-opacity:1;stroke-dasharray:none;stroke-dashoffset:0;marker:none;visibility:visible;display:inline;overflow:visible;enable-background:accumulate" />
    <path
       d="m 539.78573,108.07647 a 3.2142856,3.2142856 0 1 1 -6.42857,0 3.2142856,3.2142856 0 1 1 6.42857,0 z"
       id="path3775-5-7"
       style="color:#000000;fill:#0000ff;fill-opacity:1;stroke:#000000;stroke-width:1;stroke-linecap:round;stroke-linejoin:round;stroke-miterlimit:10;stroke-opacity:1;stroke-dasharray:none;stroke-dashoffset:0;marker:none;visibility:visible;display:inline;overflow:visible;enable-background:accumulate" />
    <path
       d="m 554.07144,185.93361 a 3.2142856,3.2142856 0 1 1 -6.42857,0 3.2142856,3.2142856 0 1 1 6.42857,0 z"
       id="path3775-6-4"
       style="color:#000000;fill:#0000ff;fill-opacity:1;stroke:#000000;stroke-width:1;stroke-linecap:round;stroke-linejoin:round;stroke-miterlimit:10;stroke-opacity:1;stroke-dasharray:none;stroke-dashoffset:0;marker:none;visibility:visible;display:inline;overflow:visible;enable-background:accumulate" />
    <path
       d="m 518.35715,244.50505 a 3.2142856,3.2142856 0 1 1 -6.42857,0 3.2142856,3.2142856 0 1 1 6.42857,0 z"
       id="path3775-2-7"
       style="color:#000000;fill:#0000ff;fill-opacity:1;stroke:#000000;stroke-width:1;stroke-linecap:round;stroke-linejoin:round;stroke-miterlimit:10;stroke-opacity:1;stroke-dasharray:none;stroke-dashoffset:0;marker:none;visibility:visible;display:inline;overflow:visible;enable-background:accumulate" />
    <path
       d="m 497.64287,259.50505 a 3.2142856,3.2142856 0 1 1 -6.42857,0 3.2142856,3.2142856 0 1 1 6.42857,0 z"
       id="path3775-1-6"
       style="color:#000000;fill:#0000ff;fill-opacity:1;stroke:#000000;stroke-width:1;stroke-linecap:round;stroke-linejoin:round;stroke-miterlimit:10;stroke-opacity:1;stroke-dasharray:none;stroke-dashoffset:0;marker:none;visibility:visible;display:inline;overflow:visible;enable-background:accumulate" />
    <g
       transform="matrix(0.76585176,-0.64301718,0.64301718,0.76585176,-10.859541,313.47336)"
       id="g3993">
      <path
         d="M 446.53236,27.442422 446.37022,351.64543"
         id="path4001"
         style="fill:none;stroke:#000000;stroke-width:1px;stroke-linecap:butt;stroke-linejoin:miter;stroke-opacity:1" />
      <path
         d="M 608.84455,189.80345 284.64148,189.6413"
         id="path4001-2"
         style="fill:none;stroke:#000000;stroke-width:1px;stroke-linecap:butt;stroke-linejoin:miter;stroke-opacity:1" />
      <path
         d="M 459.82389,333.80969 A 52.183869,39.490498 79.716243 1 1 441.19182,231.11855 52.183869,39.490498 79.716243 0 1 459.82389,333.80969 z"
         id="path4021-1"
         style="color:#000000;fill:none;stroke:#00ff00;stroke-width:1.31634974;stroke-linecap:round;stroke-linejoin:round;stroke-miterlimit:10;stroke-opacity:1;stroke-dasharray:none;stroke-dashoffset:0;marker:none;visibility:visible;display:inline;overflow:visible;enable-background:accumulate" />
      <path
         d="m 491.83171,165.49343 a 56.480349,40.255251 17.380474 1 1 109.96235,23.8857 56.480349,40.255251 17.380474 0 1 -109.96235,-23.8857 z"
         id="path4021-1-0"
         style="color:#000000;fill:none;stroke:#00ff00;stroke-width:1.38266444;stroke-linecap:round;stroke-linejoin:round;stroke-miterlimit:10;stroke-opacity:1;stroke-dasharray:none;stroke-dashoffset:0;marker:none;visibility:visible;display:inline;overflow:visible;enable-background:accumulate" />
    </g>
    <path
       d="m 540.50001,89.50504 a 3.2142856,3.2142856 0 1 1 -6.42857,0 3.2142856,3.2142856 0 1 1 6.42857,0 z"
       id="path3775-4-7"
       style="color:#000000;fill:#0000ff;fill-opacity:1;stroke:#000000;stroke-width:1;stroke-linecap:round;stroke-linejoin:round;stroke-miterlimit:10;stroke-opacity:1;stroke-dasharray:none;stroke-dashoffset:0;marker:none;visibility:visible;display:inline;overflow:visible;enable-background:accumulate" />
    <path
       d="m 504.78573,235.21933 a 3.2142856,3.2142856 0 1 1 -6.42857,0 3.2142856,3.2142856 0 1 1 6.42857,0 z"
       id="path3775-27-4"
       style="color:#000000;fill:#0000ff;fill-opacity:1;stroke:#000000;stroke-width:1;stroke-linecap:round;stroke-linejoin:round;stroke-miterlimit:10;stroke-opacity:1;stroke-dasharray:none;stroke-dashoffset:0;marker:none;visibility:visible;display:inline;overflow:visible;enable-background:accumulate" />
    <path
       d="m 534.4983,244.29405 a 3.2142856,3.2142856 0 1 1 -6.42486,-0.21819 3.2142856,3.2142856 0 1 1 6.42486,0.21819 z"
       id="path3775-2-5-6"
       style="color:#000000;fill:#0000ff;fill-opacity:1;stroke:#000000;stroke-width:1;stroke-linecap:round;stroke-linejoin:round;stroke-miterlimit:10;stroke-opacity:1;stroke-dasharray:none;stroke-dashoffset:0;marker:none;visibility:visible;display:inline;overflow:visible;enable-background:accumulate" />
    <text
       x="543.74377"
       y="320.31793"
       id="text3101"
       xml:space="preserve"
       style="font-size:25px;font-style:normal;font-variant:normal;font-weight:normal;font-stretch:normal;text-align:start;line-height:125%;letter-spacing:0px;word-spacing:0px;writing-mode:lr-tb;text-anchor:start;fill:#000000;fill-opacity:1;stroke:none;font-family:Liberation Sans;-inkscape-font-specification:Liberation Sans"><tspan
         x="543.74377"
         y="320.31793"
         id="tspan3103">F1</tspan></text>
    <text
       x="293.022"
       y="282.76114"
       id="text3105"
       xml:space="preserve"
       style="font-size:25px;font-style:normal;font-variant:normal;font-weight:normal;font-stretch:normal;text-align:start;line-height:125%;letter-spacing:0px;word-spacing:0px;writing-mode:lr-tb;text-anchor:start;fill:#000000;fill-opacity:1;stroke:none;font-family:Liberation Sans;-inkscape-font-specification:Liberation Sans"><tspan
         x="293.022"
         y="282.76114"
         id="tspan3107">F2</tspan></text>
    <path
       d="m 234.05147,71.915174 0,-0.07044 0.0235,-0.07044 0.0235,-0.07044 0.0235,-0.09392 0.0235,-0.09392 0.0235,-0.09392 0.0235,-0.09392 0.047,-0.117403 0.0235,-0.09392 0.047,-0.117403 0.047,-0.117404 0.047,-0.117403 0.047,-0.117403 0.0704,-0.117404 0.047,-0.117403 0.0704,-0.117404 0.0704,-0.117403 0.0704,-0.09392 0.0704,-0.117403 0.0939,-0.09392 0.0939,-0.117403 0.0939,-0.09392 0.0939,-0.09392 0.0939,-0.07044 0.1174,-0.07044 0.11741,-0.07044 0.047,-0.02348 0.0704,-0.04696 0.047,-0.02348 0.0704,-0.02348 0.0704,-0.02348 0.0704,0 0.0704,-0.02348 0.047,-0.02348 0.0939,0 0.0704,0 0.0704,-0.02348 0.0704,0 c 0.1174,0 0.68094,0 1.17403,0.305249 -0.65746,0.117404 -1.12707,0.70442 -1.12707,1.267957 0,0.37569 0.25829,0.821823 0.89227,0.821823 0.51657,0 1.26795,-0.422652 1.26795,-1.361879 0,-1.220995 -1.38536,-1.549724 -2.1837,-1.549724 -1.36188,0 -2.1837,1.244475 -2.44199,1.784531 -0.58702,-1.549725 -1.85497,-1.784531 -2.53591,-1.784531 -2.41851,0 -3.75691,3.029006 -3.75691,3.592543 0,0.234806 0.23481,0.234806 0.28177,0.234806 0.18784,0 0.25829,-0.04696 0.30525,-0.258287 0.79834,-2.465471 2.32458,-3.052488 3.12293,-3.052488 0.44613,0 1.26795,0.211326 1.26795,1.573206 0,0.7279 -0.39917,2.277625 -1.26795,5.541439 -0.37569,1.455801 -1.19752,2.441989 -2.20719,2.441989 -0.14088,0 -0.68094,0 -1.17403,-0.305248 0.58702,-0.117403 1.10359,-0.610498 1.10359,-1.267956 0,-0.633979 -0.51657,-0.821824 -0.86878,-0.821824 -0.70442,0 -1.29144,0.610497 -1.29144,1.361879 0,1.080111 1.17403,1.526244 2.20718,1.526244 1.52625,0 2.37155,-1.620167 2.44199,-1.761051 0.28177,0.868785 1.12707,1.761051 2.51243,1.761051 2.41851,0 3.75691,-3.005526 3.75691,-3.592543 0,-0.234807 -0.21132,-0.234807 -0.28177,-0.234807 -0.21132,0 -0.25828,0.117403 -0.30524,0.258287 -0.77487,2.512433 -2.37155,3.075968 -3.12293,3.075968 -0.89227,0 -1.26796,-0.751381 -1.26796,-1.549724 0,-0.516575 0.14088,-1.033149 0.39917,-2.042818 z"
       id="path3063"
       style="font-style:normal;font-variant:normal;font-weight:normal;font-stretch:normal;letter-spacing:normal;word-spacing:normal;text-anchor:start;fill:#000000;stroke:#000000;stroke-width:0;stroke-linecap:butt;stroke-linejoin:miter;stroke-miterlimit:10.43299961;stroke-opacity:1;stroke-dasharray:none;stroke-dashoffset:0" />
    <path
       d="m 245.08739,72.079539 0,-0.02348 0,-0.02348 0,-0.02348 0,-0.02348 0,0 0,-0.02348 0,-0.02348 0,-0.02348 0,0 0,-0.02348 0,-0.02348 0,0 0,-0.02348 0,0 -0.0235,-0.02348 0,0 0,-0.02348 0,0 0,-0.02348 0,-0.02348 -0.0235,-0.02348 0,0 0,-0.02348 -0.0235,-0.02348 0,0 -0.0235,-0.02348 0,0 -0.0235,0 -0.0235,-0.02348 -0.0235,0 -0.0235,0 0,0 -0.0235,0 -0.0235,0 0,0 -0.0235,-0.02348 0,0 -0.0235,0 0,0 -0.0235,0 -0.0235,0 -0.0235,0 0,0 -0.0235,0 -0.0235,0 -0.0235,0 0,0 -0.0235,0 -0.0235,0 -0.0235,0 c -1.05663,1.03315 -2.53592,1.05663 -3.21686,1.05663 v 0.587017 c 0.39918,0 1.47929,0 2.39503,-0.469613 v 8.335639 c 0,0.540055 0,0.751381 -1.64364,0.751381 h -0.63398 v 0.587017 c 0.30525,-0.02348 2.32458,-0.07044 2.9116,-0.07044 0.51658,0 2.58287,0.04696 2.93509,0.07044 v -0.587017 h -0.6105 c -1.64365,0 -1.64365,-0.211326 -1.64365,-0.751381 z"
       id="path3065"
       style="font-style:normal;font-variant:normal;font-weight:normal;font-stretch:normal;letter-spacing:normal;word-spacing:normal;text-anchor:start;fill:#000000;stroke:#000000;stroke-width:0;stroke-linecap:butt;stroke-linejoin:miter;stroke-miterlimit:10.43299961;stroke-opacity:1;stroke-dasharray:none;stroke-dashoffset:0" />
    <path
       d="m 192.51725,75.574483 0.0235,-0.07044 0,-0.07044 0.0235,-0.07044 0.0235,-0.09392 0.0235,-0.09392 0.0235,-0.09392 0.047,-0.09392 0.0235,-0.117403 0.047,-0.09392 0.0235,-0.117403 0.047,-0.117404 0.047,-0.117403 0.0704,-0.117403 0.047,-0.117404 0.0704,-0.117403 0.047,-0.117404 0.0704,-0.117403 0.0704,-0.09392 0.0939,-0.117403 0.0704,-0.09392 0.0939,-0.117403 0.0939,-0.09392 0.0939,-0.09392 0.0939,-0.07044 0.1174,-0.07044 0.11741,-0.07044 0.047,-0.02348 0.0704,-0.04696 0.0704,-0.02348 0.047,-0.02348 0.0704,-0.02348 0.0705,0 0.0704,-0.02348 0.0704,-0.02348 0.0704,0 0.0704,0 0.0704,-0.02348 0.0704,0 c 0.1174,0 0.68094,0 1.17403,0.305249 -0.65746,0.117404 -1.12707,0.70442 -1.12707,1.267957 0,0.37569 0.25829,0.821823 0.89227,0.821823 0.51657,0 1.26795,-0.422652 1.26795,-1.361879 0,-1.220995 -1.38536,-1.549724 -2.1837,-1.549724 -1.3384,0 -2.16022,1.244475 -2.44199,1.784531 -0.58702,-1.549725 -1.85497,-1.784531 -2.51243,-1.784531 -2.44199,0 -3.78039,3.029006 -3.78039,3.592543 0,0.234806 0.2348,0.234806 0.28177,0.234806 0.18784,0 0.25828,-0.04696 0.30525,-0.258287 0.79834,-2.465471 2.34806,-3.052488 3.14641,-3.052488 0.42265,0 1.24447,0.211326 1.24447,1.573206 0,0.7279 -0.39917,2.277625 -1.24447,5.541439 -0.3757,1.455801 -1.19752,2.441989 -2.23067,2.441989 -0.14088,0 -0.68094,0 -1.17403,-0.305248 0.58701,-0.117403 1.10359,-0.610498 1.10359,-1.267956 0,-0.633979 -0.51658,-0.821824 -0.86879,-0.821824 -0.70442,0 -1.26795,0.610497 -1.26795,1.361879 0,1.080111 1.15055,1.526243 2.1837,1.526243 1.54973,0 2.37155,-1.620166 2.44199,-1.76105 0.28177,0.868785 1.12707,1.76105 2.53591,1.76105 2.39503,0 3.73343,-3.005525 3.73343,-3.592542 0,-0.234807 -0.21133,-0.234807 -0.28177,-0.234807 -0.21132,0 -0.25828,0.117403 -0.30525,0.258287 -0.77486,2.512433 -2.34806,3.075968 -3.09945,3.075968 -0.91574,0 -1.29143,-0.751381 -1.29143,-1.549724 0,-0.516575 0.14088,-1.033149 0.39917,-2.042818 z"
       id="path3067"
       style="font-style:normal;font-variant:normal;font-weight:normal;font-stretch:normal;letter-spacing:normal;word-spacing:normal;text-anchor:start;fill:#000000;stroke:#000000;stroke-width:0;stroke-linecap:butt;stroke-linejoin:miter;stroke-miterlimit:10.43299961;stroke-opacity:1;stroke-dasharray:none;stroke-dashoffset:0" />
    <path
       d="m 206.34737,83.135259 h -0.56354 c -0.047,0.375691 -0.21132,1.338399 -0.42265,1.502764 -0.14088,0.09392 -1.38536,0.09392 -1.62017,0.09392 h -3.00552 c 1.71409,-1.526244 2.27762,-1.972377 3.26381,-2.747239 1.221,-0.962708 2.34807,-1.972377 2.34807,-3.522101 0,-1.972377 -1.73757,-3.193372 -3.82735,-3.193372 -2.04282,0 -3.4047,1.432321 -3.4047,2.935084 0,0.821824 0.70442,0.915747 0.86879,0.915747 0.39917,0 0.86878,-0.281768 0.86878,-0.868785 0,-0.305249 -0.1174,-0.868785 -0.96271,-0.868785 0.4931,-1.150553 1.62017,-1.526244 2.37155,-1.526244 1.64365,0 2.48895,1.267956 2.48895,2.606355 0,1.40884 -1.00967,2.535913 -1.52624,3.122929 l -3.94475,3.897792 c -0.16437,0.140884 -0.16437,0.164365 -0.16437,0.633978 h 6.73896 z"
       id="path3069"
       style="font-style:normal;font-variant:normal;font-weight:normal;font-stretch:normal;letter-spacing:normal;word-spacing:normal;text-anchor:start;fill:#000000;stroke:#000000;stroke-width:0;stroke-linecap:butt;stroke-linejoin:miter;stroke-miterlimit:10.43299961;stroke-opacity:1;stroke-dasharray:none;stroke-dashoffset:0" />
    <path
       d="m 251.00414,105.45884 0.0235,-0.0704 0.0235,-0.0704 0,-0.0704 0.0235,-0.0939 0.0235,-0.0939 0.047,-0.0939 0.0235,-0.0939 0.0235,-0.1174 0.047,-0.0939 0.047,-0.11741 0.047,-0.1174 0.047,-0.1174 0.047,-0.11741 0.047,-0.1174 0.0704,-0.1174 0.0704,-0.11741 0.0704,-0.1174 0.0704,-0.0939 0.0704,-0.1174 0.0939,-0.0939 0.0704,-0.11741 0.0939,-0.0939 0.0939,-0.0939 0.11741,-0.0704 0.1174,-0.0704 0.0939,-0.0704 0.0705,-0.0235 0.047,-0.047 0.0704,-0.0235 0.0704,-0.0235 0.0704,-0.0235 0.047,0 0.0704,-0.0235 0.0704,-0.0235 0.0704,0 0.0704,0 0.0939,-0.0235 0.0704,0 c 0.1174,0 0.68094,0 1.17403,0.30525 -0.65746,0.11741 -1.12707,0.70442 -1.12707,1.26796 0,0.37569 0.25829,0.82182 0.89226,0.82182 0.4931,0 1.24448,-0.42265 1.24448,-1.36188 0,-1.22099 -1.36188,-1.54972 -2.16022,-1.54972 -1.36188,0 -2.1837,1.24447 -2.46547,1.78453 -0.56354,-1.54973 -1.8315,-1.78453 -2.51243,-1.78453 -2.44199,0 -3.75691,3.029 -3.75691,3.59254 0,0.23481 0.2348,0.23481 0.28177,0.23481 0.18784,0 0.25828,-0.047 0.30524,-0.25829 0.77487,-2.46547 2.32459,-3.05249 3.12293,-3.05249 0.44614,0 1.26796,0.21133 1.26796,1.57321 0,0.7279 -0.39917,2.27762 -1.26796,5.54144 -0.37569,1.4558 -1.19751,2.44199 -2.23066,2.44199 -0.14088,0 -0.65746,0 -1.15055,-0.30525 0.56353,-0.1174 1.08011,-0.6105 1.08011,-1.26796 0,-0.63398 -0.51658,-0.82182 -0.84531,-0.82182 -0.70442,0 -1.29143,0.6105 -1.29143,1.36188 0,1.08011 1.17403,1.52624 2.1837,1.52624 1.54972,0 2.39503,-1.62017 2.46547,-1.76105 0.28177,0.86879 1.12707,1.76105 2.51243,1.76105 2.41851,0 3.75691,-3.00552 3.75691,-3.59254 0,-0.23481 -0.23481,-0.23481 -0.30525,-0.23481 -0.18784,0 -0.23481,0.1174 -0.28177,0.25829 -0.77486,2.51243 -2.37155,3.07597 -3.12293,3.07597 -0.89226,0 -1.26795,-0.75138 -1.26795,-1.54973 0,-0.51657 0.1174,-1.03315 0.37569,-2.04282 z"
       id="path3071"
       style="font-style:normal;font-variant:normal;font-weight:normal;font-stretch:normal;letter-spacing:normal;word-spacing:normal;text-anchor:start;fill:#000000;stroke:#000000;stroke-width:0;stroke-linecap:butt;stroke-linejoin:miter;stroke-miterlimit:10.43299961;stroke-opacity:1;stroke-dasharray:none;stroke-dashoffset:0" />
    <path
       d="m 261.03039,110.55414 0.14088,0 0.11741,0 0.0939,0.0235 0.1174,0 0.11741,0.0235 0.0939,0.047 0.1174,0.0235 0.0939,0.047 0.0939,0.047 0.0939,0.047 0.0939,0.047 0.0939,0.047 0.0939,0.0704 0.0704,0.0704 0.0704,0.0704 0.0939,0.0939 0.0705,0.0704 0.047,0.0939 0.0704,0.0939 0.0704,0.0939 0.047,0.11741 0.047,0.1174 0.047,0.1174 0.047,0.11741 0.047,0.1174 0.0235,0.14089 0.0235,0.1174 0.0235,0.14088 0.0235,0.16437 0,0.14088 0.0235,0.16437 0,0.16436 c 0,2.01934 -1.17403,2.62984 -2.13674,2.62984 -0.65746,0 -2.08978,-0.18785 -2.77072,-1.15056 0.77486,-0.047 0.93923,-0.58701 0.93923,-0.91574 0,-0.51658 -0.37569,-0.89227 -0.89227,-0.89227 -0.44613,0 -0.91574,0.28177 -0.91574,0.93923 0,1.52624 1.6906,2.53591 3.68646,2.53591 2.27763,0 3.82735,-1.52624 3.82735,-3.14641 0,-1.29144 -1.03315,-2.55939 -2.84116,-2.93508 1.71409,-0.6105 2.34807,-1.8315 2.34807,-2.84116 0,-1.29144 -1.50277,-2.25415 -3.31078,-2.25415 -1.80801,0 -3.19337,0.89227 -3.19337,2.1837 0,0.56354 0.35221,0.86879 0.84531,0.86879 0.49309,0 0.82182,-0.37569 0.82182,-0.82183 0,-0.46961 -0.32873,-0.82182 -0.82182,-0.8453 0.56353,-0.7279 1.6906,-0.91575 2.3011,-0.91575 0.7279,0 1.76105,0.37569 1.76105,1.78454 0,0.68093 -0.2348,1.43232 -0.65746,1.94889 -0.54005,0.6105 -0.98619,0.65746 -1.80801,0.70442 -0.39917,0.0235 -0.44613,0.0235 -0.51657,0.047 -0.047,0 -0.16437,0.0235 -0.16437,0.21133 0,0.2348 0.14089,0.2348 0.42265,0.2348 z"
       id="path3073"
       style="font-style:normal;font-variant:normal;font-weight:normal;font-stretch:normal;letter-spacing:normal;word-spacing:normal;text-anchor:start;fill:#000000;stroke:#000000;stroke-width:0;stroke-linecap:butt;stroke-linejoin:miter;stroke-miterlimit:10.43299961;stroke-opacity:1;stroke-dasharray:none;stroke-dashoffset:0" />
    <path
       d="m 229.0097,178.64501 0,-0.0704 0.0235,-0.0704 0.0235,-0.0704 0.0235,-0.0939 0.0235,-0.0939 0.0235,-0.0939 0.0235,-0.0939 0.047,-0.1174 0.047,-0.0939 0.0235,-0.1174 0.047,-0.11741 0.047,-0.1174 0.047,-0.1174 0.0704,-0.11741 0.047,-0.1174 0.0704,-0.1174 0.0704,-0.11741 0.0704,-0.0939 0.0939,-0.1174 0.0704,-0.0939 0.0939,-0.1174 0.0939,-0.0939 0.0939,-0.0939 0.0939,-0.0704 0.1174,-0.0704 0.1174,-0.0704 0.047,-0.0235 0.0705,-0.047 0.0704,-0.0235 0.047,-0.0235 0.0704,-0.0235 0.0704,0 0.0704,-0.0235 0.0704,-0.0235 0.0704,0 0.0704,0 0.0704,-0.0235 0.0704,0 c 0.1174,0 0.68094,0 1.17403,0.30525 -0.65746,0.1174 -1.12707,0.70442 -1.12707,1.26795 0,0.37569 0.25828,0.82183 0.89226,0.82183 0.51658,0 1.26796,-0.42265 1.26796,-1.36188 0,-1.221 -1.38536,-1.54973 -2.1837,-1.54973 -1.3384,0 -2.16023,1.24448 -2.44199,1.78454 -0.58702,-1.54973 -1.85498,-1.78454 -2.53592,-1.78454 -2.41851,0 -3.7569,3.02901 -3.7569,3.59255 0,0.2348 0.2348,0.2348 0.28176,0.2348 0.18785,0 0.25829,-0.047 0.30525,-0.25828 0.79835,-2.46547 2.34807,-3.05249 3.12293,-3.05249 0.44614,0 1.26796,0.21132 1.26796,1.5732 0,0.7279 -0.39917,2.27763 -1.26796,5.54144 -0.37569,1.4558 -1.17403,2.44199 -2.20718,2.44199 -0.14088,0 -0.68094,0 -1.17403,-0.30525 0.58701,-0.1174 1.10359,-0.61049 1.10359,-1.26795 0,-0.63398 -0.51658,-0.82183 -0.86879,-0.82183 -0.70442,0 -1.29143,0.6105 -1.29143,1.36188 0,1.08011 1.17403,1.52625 2.20718,1.52625 1.54972,0 2.37155,-1.62017 2.44199,-1.76105 0.28177,0.86878 1.12707,1.76105 2.53591,1.76105 2.39503,0 3.73343,-3.00553 3.73343,-3.59255 0,-0.2348 -0.21133,-0.2348 -0.28177,-0.2348 -0.21133,0 -0.25829,0.1174 -0.30525,0.25828 -0.77486,2.51244 -2.34807,3.07597 -3.09945,3.07597 -0.91574,0 -1.29143,-0.75138 -1.29143,-1.54972 0,-0.51658 0.14088,-1.03315 0.39917,-2.04282 z"
       id="path3075"
       style="font-style:normal;font-variant:normal;font-weight:normal;font-stretch:normal;letter-spacing:normal;word-spacing:normal;text-anchor:start;fill:#000000;stroke:#000000;stroke-width:0;stroke-linecap:butt;stroke-linejoin:miter;stroke-miterlimit:10.43299961;stroke-opacity:1;stroke-dasharray:none;stroke-dashoffset:0" />
    <path
       d="m 243.21551,186.51104 v -0.58702 h -1.80801 v -7.27901 c 0,-0.35221 0,-0.46961 -0.35221,-0.46961 -0.21133,0 -0.28177,0 -0.44614,0.23481 l -5.40055,7.51381 v 0.58702 h 4.81354 l 0.1174,-0.58702 h -4.32044 l 4.32044,-5.98757 v 5.98757 l -0.1174,0.58702 v 1.3384 c 0,0.54005 0,0.75138 -1.3384,0.75138 h -0.44614 v 0.58702 c 0.82183,-0.047 1.87846,-0.0704 2.46548,-0.0704 0.61049,0 1.64364,0.0235 2.46547,0.0704 v -0.58702 h -0.44614 c -1.31491,0 -1.31491,-0.21133 -1.31491,-0.75138 v -1.3384 z"
       id="path3077"
       style="font-style:normal;font-variant:normal;font-weight:normal;font-stretch:normal;letter-spacing:normal;word-spacing:normal;text-anchor:start;fill:#000000;stroke:#000000;stroke-width:0;stroke-linecap:butt;stroke-linejoin:miter;stroke-miterlimit:10.43299961;stroke-opacity:1;stroke-dasharray:none;stroke-dashoffset:0" />
    <path
       d="m 181.98651,220.11718 0.0235,-0.0704 0.0235,-0.0704 0,-0.0704 0.0235,-0.0939 0.0235,-0.0939 0.047,-0.0939 0.0235,-0.0939 0.0235,-0.1174 0.047,-0.0939 0.047,-0.11741 0.047,-0.1174 0.047,-0.1174 0.047,-0.11741 0.047,-0.1174 0.0704,-0.1174 0.0704,-0.11741 0.0704,-0.1174 0.0704,-0.0939 0.0704,-0.1174 0.0939,-0.0939 0.0704,-0.11741 0.0939,-0.0939 0.0939,-0.0939 0.11741,-0.0704 0.0939,-0.0704 0.1174,-0.0704 0.0704,-0.0235 0.047,-0.047 0.0704,-0.0235 0.0704,-0.0235 0.047,-0.0235 0.0704,0 0.0704,-0.0235 0.0704,-0.0235 0.0704,0 0.0704,0 0.0704,-0.0235 0.0939,0 c 0.1174,0 0.68093,0 1.15055,0.30525 -0.63398,0.11741 -1.10359,0.70442 -1.10359,1.26796 0,0.37569 0.25828,0.82182 0.89226,0.82182 0.4931,0 1.24448,-0.42265 1.24448,-1.36188 0,-1.22099 -1.38536,-1.54972 -2.16022,-1.54972 -1.36188,0 -2.18371,1.24448 -2.46547,1.78453 -0.58702,-1.54972 -1.8315,-1.78453 -2.51244,-1.78453 -2.44199,0 -3.7569,3.02901 -3.7569,3.59254 0,0.23481 0.2348,0.23481 0.25828,0.23481 0.21133,0 0.28177,-0.047 0.30525,-0.25829 0.79834,-2.46547 2.34807,-3.05249 3.14641,-3.05249 0.44613,0 1.24448,0.21133 1.24448,1.57321 0,0.7279 -0.37569,2.27763 -1.24448,5.54144 -0.37569,1.4558 -1.19751,2.44199 -2.23066,2.44199 -0.14089,0 -0.68094,0 -1.15056,-0.30525 0.56354,-0.1174 1.08012,-0.6105 1.08012,-1.26796 0,-0.63397 -0.51658,-0.82182 -0.86879,-0.82182 -0.68094,0 -1.26796,0.6105 -1.26796,1.36188 0,1.08011 1.15056,1.52624 2.18371,1.52624 1.54972,0 2.39503,-1.62016 2.46547,-1.76105 0.28177,0.86879 1.10359,1.76105 2.51243,1.76105 2.41851,0 3.73343,-3.00552 3.73343,-3.59254 0,-0.23481 -0.21133,-0.23481 -0.28177,-0.23481 -0.18785,0 -0.23481,0.11741 -0.30525,0.25829 -0.75138,2.51243 -2.34807,3.07597 -3.09945,3.07597 -0.91575,0 -1.29144,-0.75138 -1.29144,-1.54973 0,-0.51657 0.14089,-1.03314 0.39918,-2.04281 z"
       id="path3079"
       style="font-style:normal;font-variant:normal;font-weight:normal;font-stretch:normal;letter-spacing:normal;word-spacing:normal;text-anchor:start;fill:#000000;stroke:#000000;stroke-width:0;stroke-linecap:butt;stroke-linejoin:miter;stroke-miterlimit:10.43299961;stroke-opacity:1;stroke-dasharray:none;stroke-dashoffset:0" />
    <path
       d="m 190.08734,221.5495 0.0704,0.0235 0.0939,0 0.0704,0.0235 0.0704,0.0235 0.0704,0 0.0704,0.0235 0.0704,0.0235 0.047,0 0.0704,0.0235 0.047,0 0.0704,0 0.047,0.0235 0.0704,0 0.047,0 0.047,0.0235 0.047,0 0.047,0 0.047,0 0.047,0 0.047,0 0.047,0.0235 0.0235,0 0.047,0 0.047,0 0.0235,0 0.0235,0 0.047,0 0.0235,0 0.0235,0 0.047,0 0.0235,0 0.0235,0 c 2.16022,0 3.42818,-1.47928 3.42818,-1.71409 0,-0.18784 -0.11741,-0.2348 -0.18785,-0.2348 -0.047,0 -0.0704,0 -0.14088,0.047 -0.39918,0.16436 -1.24448,0.46961 -2.46547,0.46961 -0.46962,0 -1.3384,-0.0235 -2.39503,-0.42265 -0.16437,-0.0939 -0.18785,-0.0939 -0.21133,-0.0939 -0.21133,0 -0.21133,0.18784 -0.21133,0.44613 v 4.81354 c 0,0.28177 0,0.46961 0.25829,0.46961 0.16437,0 0.16437,-0.0235 0.32873,-0.2348 0.70442,-0.89227 1.71409,-1.00967 2.27763,-1.00967 0.98618,0 1.43232,0.77486 1.50276,0.91574 0.30525,0.54006 0.39917,1.15056 0.39917,2.08978 0,0.4931 0,1.4558 -0.49309,2.18371 -0.39917,0.58701 -1.10359,0.98618 -1.92542,0.98618 -1.05663,0 -2.13674,-0.61049 -2.55939,-1.66712 0.63398,0.047 0.93923,-0.37569 0.93923,-0.79835 0,-0.70442 -0.6105,-0.8453 -0.82183,-0.8453 -0.0235,0 -0.82182,0 -0.82182,0.89226 0,1.45581 1.3384,2.93509 3.31077,2.93509 2.08978,0 3.92128,-1.54973 3.92128,-3.61602 0,-1.8315 -1.40884,-3.54559 -3.42818,-3.54559 -0.7279,0 -1.57321,0.18785 -2.30111,0.79835 z"
       id="path3081"
       style="font-style:normal;font-variant:normal;font-weight:normal;font-stretch:normal;letter-spacing:normal;word-spacing:normal;text-anchor:start;fill:#000000;stroke:#000000;stroke-width:0;stroke-linecap:butt;stroke-linejoin:miter;stroke-miterlimit:10.43299961;stroke-opacity:1;stroke-dasharray:none;stroke-dashoffset:0" />
    <path
       d="m 219.15091,224.99626 0,-0.0704 0.0235,-0.0704 0.0235,-0.0704 0.0235,-0.0939 0.0235,-0.0939 0.0235,-0.0939 0.0235,-0.0939 0.047,-0.1174 0.0235,-0.0939 0.047,-0.11741 0.047,-0.1174 0.047,-0.1174 0.047,-0.11741 0.0704,-0.1174 0.047,-0.1174 0.0704,-0.11741 0.0704,-0.1174 0.0704,-0.0939 0.0704,-0.1174 0.0939,-0.0939 0.0939,-0.11741 0.0939,-0.0939 0.0939,-0.0939 0.0939,-0.0704 0.11741,-0.0704 0.1174,-0.0704 0.047,-0.0235 0.0704,-0.047 0.047,-0.0235 0.0704,-0.0235 0.0704,-0.0235 0.0704,0 0.0704,-0.0235 0.0704,-0.0235 0.0704,0 0.0704,0 0.0704,-0.0235 0.0704,0 c 0.11741,0 0.68094,0 1.17404,0.30525 -0.65746,0.11741 -1.12707,0.70442 -1.12707,1.26796 0,0.37569 0.25828,0.82182 0.89226,0.82182 0.51658,0 1.26796,-0.42265 1.26796,-1.36188 0,-1.22099 -1.38536,-1.54972 -2.18371,-1.54972 -1.36187,0 -2.16022,1.24447 -2.44199,1.78453 -0.58701,-1.54972 -1.85497,-1.78453 -2.53591,-1.78453 -2.41851,0 -3.75691,3.02901 -3.75691,3.59254 0,0.23481 0.23481,0.23481 0.28177,0.23481 0.18785,0 0.25829,-0.047 0.30525,-0.25829 0.79834,-2.46547 2.32459,-3.05249 3.12293,-3.05249 0.44613,0 1.26796,0.21133 1.26796,1.57321 0,0.7279 -0.39917,2.27762 -1.26796,5.54144 -0.37569,1.4558 -1.19751,2.44199 -2.20718,2.44199 -0.14089,0 -0.68094,0 -1.17404,-0.30525 0.58702,-0.1174 1.10359,-0.6105 1.10359,-1.26796 0,-0.63398 -0.51657,-0.82182 -0.86878,-0.82182 -0.70442,0 -1.29144,0.6105 -1.29144,1.36188 0,1.08011 1.17404,1.52624 2.20719,1.52624 1.52624,0 2.37154,-1.62016 2.44199,-1.76105 0.28176,0.86879 1.12707,1.76105 2.53591,1.76105 2.39503,0 3.73343,-3.00552 3.73343,-3.59254 0,-0.23481 -0.21133,-0.23481 -0.28177,-0.23481 -0.21133,0 -0.25829,0.11741 -0.30525,0.25829 -0.77486,2.51243 -2.37155,3.07597 -3.09945,3.07597 -0.91575,0 -1.29144,-0.75138 -1.29144,-1.54973 0,-0.51657 0.14089,-1.03315 0.39917,-2.04281 z"
       id="path3083"
       style="font-style:normal;font-variant:normal;font-weight:normal;font-stretch:normal;letter-spacing:normal;word-spacing:normal;text-anchor:start;fill:#000000;stroke:#000000;stroke-width:0;stroke-linecap:butt;stroke-linejoin:miter;stroke-miterlimit:10.43299961;stroke-opacity:1;stroke-dasharray:none;stroke-dashoffset:0" />
    <path
       d="m 227.15782,230.18549 0,-0.23481 0,-0.25829 0.0235,-0.2348 0,-0.23481 0.0235,-0.23481 0.0235,-0.2348 0.0235,-0.23481 0.047,-0.21133 0.047,-0.2348 0.047,-0.21133 0.047,-0.21132 0.0704,-0.21133 0.047,-0.0939 0.047,-0.1174 0.047,-0.0939 0.047,-0.0939 0.047,-0.0939 0.047,-0.0939 0.047,-0.0939 0.047,-0.0939 c 0.56353,-0.89227 1.4558,-1.50277 2.48895,-1.50277 0.49309,0 1.15055,0.14089 1.47928,0.58702 -0.39917,0.0235 -0.75138,0.30525 -0.75138,0.77486 0,0.39917 0.28177,0.77486 0.77486,0.77486 0.4931,0 0.77487,-0.32872 0.77487,-0.79834 0,-0.96271 -0.68094,-1.80801 -2.30111,-1.80801 -2.34807,0 -4.76658,2.16022 -4.76658,5.65884 0,4.25 1.99586,5.51796 3.80387,5.51796 1.99586,0 3.73343,-1.52624 3.73343,-3.66298 0,-2.0663 -1.66713,-3.61603 -3.56906,-3.61603 l -0.0939,0.46962 c 0.75139,0 1.26796,0.28176 1.66713,0.89226 0.39917,0.63398 0.42265,1.31492 0.42265,2.25415 0,0.93922 0,1.62016 -0.44613,2.25414 -0.39917,0.56354 -0.91575,0.89227 -1.71409,0.89227 h 0 c -0.82182,0 -1.4558,-0.4931 -1.80801,-1.19752 -0.23481,-0.49309 -0.37569,-1.31492 -0.37569,-2.30111 0,-1.5732 0.96271,-2.79419 2.25414,-2.79419 l 0.0939,-0.46962 c -1.31492,0 -2.04282,0.86879 -2.39503,1.59669 z"
       id="path3085"
       style="font-style:normal;font-variant:normal;font-weight:normal;font-stretch:normal;letter-spacing:normal;word-spacing:normal;text-anchor:start;fill:#000000;stroke:#000000;stroke-width:0;stroke-linecap:butt;stroke-linejoin:miter;stroke-miterlimit:10.43299961;stroke-opacity:1;stroke-dasharray:none;stroke-dashoffset:0" />
    <path
       d="m 246.53366,240.85326 0.0235,-0.0704 0,-0.0704 0.0235,-0.0704 0.0235,-0.0939 0.0235,-0.0939 0.0235,-0.0939 0.047,-0.0939 0.0235,-0.1174 0.047,-0.0939 0.0235,-0.1174 0.047,-0.11741 0.047,-0.1174 0.0704,-0.1174 0.047,-0.11741 0.0704,-0.1174 0.047,-0.1174 0.0704,-0.11741 0.0704,-0.0939 0.0939,-0.1174 0.0704,-0.0939 0.0939,-0.1174 0.0939,-0.0939 0.0939,-0.0939 0.1174,-0.0704 0.0939,-0.0704 0.1174,-0.0704 0.0704,-0.0235 0.047,-0.047 0.0704,-0.0235 0.0704,-0.0235 0.047,-0.0235 0.0704,0 0.0704,-0.0235 0.0704,-0.0235 0.0704,0 0.0704,0 0.0704,-0.0235 0.0704,0 c 0.14089,0 0.68094,0 1.17404,0.30525 -0.65746,0.1174 -1.1036,0.70442 -1.1036,1.26795 0,0.37569 0.23481,0.82183 0.86879,0.82183 0.51657,0 1.26796,-0.42265 1.26796,-1.36188 0,-1.221 -1.38536,-1.54973 -2.18371,-1.54973 -1.3384,0 -2.16022,1.24448 -2.44199,1.78454 -0.58701,-1.54973 -1.85497,-1.78454 -2.51243,-1.78454 -2.44199,0 -3.78039,3.02901 -3.78039,3.59255 0,0.2348 0.23481,0.2348 0.28177,0.2348 0.18785,0 0.25829,-0.047 0.30525,-0.25828 0.79834,-2.46547 2.34807,-3.05249 3.14641,-3.05249 0.42265,0 1.24448,0.21132 1.24448,1.5732 0,0.7279 -0.39918,2.27763 -1.24448,5.54144 -0.37569,1.4558 -1.19751,2.44199 -2.23066,2.44199 -0.14089,0 -0.68094,0 -1.17404,-0.30525 0.58702,-0.1174 1.10359,-0.61049 1.10359,-1.26795 0,-0.63398 -0.51657,-0.82183 -0.86878,-0.82183 -0.70442,0 -1.29144,0.6105 -1.29144,1.36188 0,1.08011 1.17404,1.52625 2.20718,1.52625 1.54973,0 2.39503,-1.62017 2.46548,-1.76105 0.28176,0.86878 1.10359,1.76105 2.51243,1.76105 2.39503,0 3.73342,-3.00553 3.73342,-3.59255 0,-0.2348 -0.21132,-0.2348 -0.28176,-0.2348 -0.21133,0 -0.25829,0.1174 -0.30525,0.25828 -0.75138,2.51244 -2.34807,3.07597 -3.09945,3.07597 -0.91575,0 -1.29144,-0.75138 -1.29144,-1.54972 0,-0.51658 0.14089,-1.03315 0.39917,-2.04282 z"
       id="path3087"
       style="font-style:normal;font-variant:normal;font-weight:normal;font-stretch:normal;letter-spacing:normal;word-spacing:normal;text-anchor:start;fill:#000000;stroke:#000000;stroke-width:0;stroke-linecap:butt;stroke-linejoin:miter;stroke-miterlimit:10.43299961;stroke-opacity:1;stroke-dasharray:none;stroke-dashoffset:0" />
    <path
       d="m 260.85687,241.5342 0,-0.0235 0.0235,-0.0235 0,0 0.0235,-0.0235 0,-0.0235 0.0235,0 0,-0.0235 0.0235,0 0,-0.0235 0,-0.0235 0.0235,0 0,-0.0235 0,0 0,-0.0235 0.0235,-0.0235 0,0 0,-0.0235 0,-0.0235 0,-0.0235 0,0 0,-0.0235 0,-0.0235 0.0235,-0.0235 0,-0.0235 0,-0.0235 0,-0.0235 0,-0.047 0,-0.0235 0,-0.0235 0,-0.0235 0,-0.0235 0,0 0,-0.0235 0,-0.0235 0,-0.0235 h -4.29696 c -0.65746,0 -0.82182,-0.0235 -1.40884,-0.0704 -0.86879,-0.047 -0.89227,-0.16436 -0.93923,-0.44613 h -0.56353 l -0.56354,3.49862 h 0.56354 c 0.0235,-0.25829 0.18784,-1.3384 0.44613,-1.50276 0.14088,-0.0939 1.4558,-0.0939 1.69061,-0.0939 h 3.56906 c -0.51658,0.68094 -1.36188,1.71409 -1.69061,2.16022 -2.13674,2.81768 -2.34807,5.40055 -2.34807,6.36326 0,0.18785 0,0.93923 0.77487,0.93923 0.77486,0 0.77486,-0.7279 0.77486,-0.96271 v -0.63398 c 0,-3.16989 0.65746,-4.62569 1.36188,-5.51795 z"
       id="path3089"
       style="font-style:normal;font-variant:normal;font-weight:normal;font-stretch:normal;letter-spacing:normal;word-spacing:normal;text-anchor:start;fill:#000000;stroke:#000000;stroke-width:0;stroke-linecap:butt;stroke-linejoin:miter;stroke-miterlimit:10.43299961;stroke-opacity:1;stroke-dasharray:none;stroke-dashoffset:0" />
    <path
       d="m 209.26862,261.58935 0.0235,-0.0704 0.0235,-0.0704 0.0235,-0.0704 0.0235,-0.0939 0.0235,-0.0939 0.0235,-0.0939 0.0235,-0.0939 0.047,-0.11741 0.0235,-0.0939 0.047,-0.1174 0.047,-0.1174 0.047,-0.11741 0.047,-0.1174 0.047,-0.1174 0.0704,-0.11741 0.0704,-0.1174 0.0704,-0.1174 0.0704,-0.0939 0.0704,-0.11741 0.0939,-0.0939 0.0704,-0.1174 0.0939,-0.0939 0.1174,-0.0939 0.0939,-0.0704 0.11741,-0.0704 0.0939,-0.0704 0.0704,-0.0235 0.0704,-0.047 0.047,-0.0235 0.0704,-0.0235 0.0704,-0.0235 0.0704,0 0.047,-0.0235 0.0704,-0.0235 0.0704,0 0.0939,0 0.0704,-0.0235 0.0704,0 c 0.1174,0 0.68094,0 1.17404,0.30525 -0.65746,0.1174 -1.12708,0.70442 -1.12708,1.26796 0,0.37569 0.25829,0.82182 0.89227,0.82182 0.51657,0 1.24447,-0.42265 1.24447,-1.36188 0,-1.22099 -1.36187,-1.54972 -2.16022,-1.54972 -1.36188,0 -2.1837,1.24447 -2.46547,1.78453 -0.56353,-1.54973 -1.83149,-1.78453 -2.51243,-1.78453 -2.44199,0 -3.75691,3.029 -3.75691,3.59254 0,0.23481 0.23481,0.23481 0.28177,0.23481 0.18784,0 0.25829,-0.047 0.30525,-0.25829 0.79834,-2.46547 2.32459,-3.05249 3.12293,-3.05249 0.44613,0 1.26795,0.21133 1.26795,1.57321 0,0.7279 -0.39917,2.27762 -1.26795,5.54144 -0.37569,1.4558 -1.19752,2.44199 -2.23067,2.44199 -0.14088,0 -0.65745,0 -1.15055,-0.30525 0.58702,-0.11741 1.08011,-0.6105 1.08011,-1.26796 0,-0.63398 -0.49309,-0.82182 -0.8453,-0.82182 -0.70442,0 -1.29144,0.61049 -1.29144,1.36188 0,1.08011 1.17403,1.52624 2.20718,1.52624 1.52625,0 2.37155,-1.62017 2.44199,-1.76105 0.28177,0.86878 1.12708,1.76105 2.51244,1.76105 2.41851,0 3.7569,-3.00553 3.7569,-3.59254 0,-0.23481 -0.21132,-0.23481 -0.28176,-0.23481 -0.21133,0 -0.25829,0.1174 -0.30525,0.25829 -0.77487,2.51243 -2.37155,3.07597 -3.12293,3.07597 -0.89227,0 -1.26796,-0.75139 -1.26796,-1.54973 0,-0.51657 0.14089,-1.03315 0.39917,-2.04282 z"
       id="path3091"
       style="font-style:normal;font-variant:normal;font-weight:normal;font-stretch:normal;letter-spacing:normal;word-spacing:normal;text-anchor:start;fill:#000000;stroke:#000000;stroke-width:0;stroke-linecap:butt;stroke-linejoin:miter;stroke-miterlimit:10.43299961;stroke-opacity:1;stroke-dasharray:none;stroke-dashoffset:0" />
    <path
       d="m 220.65675,266.23852 0.11741,-0.0704 0.1174,-0.047 0.0939,-0.0704 0.1174,-0.047 0.11741,-0.0704 0.0939,-0.0704 0.0939,-0.047 0.11741,-0.0704 0.0939,-0.0704 0.0704,-0.0704 0.0939,-0.0704 0.0939,-0.0704 0.0704,-0.0704 0.0939,-0.0704 0.0704,-0.0704 0.0704,-0.0939 0.0704,-0.0704 0.047,-0.0704 0.0704,-0.0939 0.047,-0.0704 0.047,-0.0939 0.047,-0.0704 0.047,-0.0939 0.047,-0.0939 0.0235,-0.0939 0.0235,-0.0939 0.0235,-0.0939 0.0235,-0.0939 0.0235,-0.0939 0,-0.0939 0.0235,-0.1174 0,-0.0939 c 0,-1.59669 -1.66713,-2.44199 -3.24033,-2.44199 l -0.0235,0.46961 c 1.26795,0 2.39503,0.79834 2.39503,1.97238 0,1.4558 -1.69061,2.1837 -1.73757,2.1837 -0.0235,0 -0.0704,-0.0235 -0.16437,-0.0939 l -1.99586,-1.12707 c -0.42265,-0.25829 -0.86878,-0.68094 -0.86878,-1.29144 0,-1.03315 1.17403,-1.64365 2.37155,-1.64365 l 0.0235,-0.46961 c -1.80801,0 -3.26381,1.17403 -3.26381,2.72376 0,0.77486 0.35221,1.3384 0.65745,1.64365 0.28177,0.35221 0.39918,0.42265 1.36188,0.98618 -0.91574,0.39918 -2.53591,1.29144 -2.53591,2.98205 0,1.83149 1.87845,2.84116 3.75691,2.84116 l 0.0235,-0.51657 c -1.50276,0 -2.7942,-0.96271 -2.7942,-2.32459 0,-1.19751 0.89226,-2.13674 2.0663,-2.6768 h 0 l 2.25414,1.29144 c 0.42265,0.25829 1.24448,0.75138 1.24448,1.71409 0,1.22099 -1.36188,1.99586 -2.77072,1.99586 l -0.0235,0.51657 c 2.0663,0 3.78039,-1.31492 3.78039,-3.09945 0,-1.08011 -0.65746,-1.97237 -1.59669,-2.53591 -0.21133,-0.14088 -0.79834,-0.46961 -1.00967,-0.58702 z"
       id="path3093"
       style="font-style:normal;font-variant:normal;font-weight:normal;font-stretch:normal;letter-spacing:normal;word-spacing:normal;text-anchor:start;fill:#000000;stroke:#000000;stroke-width:0;stroke-linecap:butt;stroke-linejoin:miter;stroke-miterlimit:10.43299961;stroke-opacity:1;stroke-dasharray:none;stroke-dashoffset:0" />
    <path
       d="m 533.4792,71.692713 0,-0.07044 0.0235,-0.07044 0.0235,-0.07044 0.0235,-0.09392 0.0235,-0.09392 0.0235,-0.09392 0.0235,-0.09392 0.047,-0.117403 0.0235,-0.09392 0.047,-0.117403 0.047,-0.117404 0.047,-0.117403 0.047,-0.117403 0.0704,-0.117404 0.047,-0.117403 0.0704,-0.117404 0.0704,-0.117403 0.0704,-0.09392 0.0704,-0.117403 0.0939,-0.09392 0.0939,-0.117403 0.0939,-0.09392 0.0939,-0.09392 0.0939,-0.07044 0.1174,-0.07044 0.11741,-0.07044 0.047,-0.02348 0.0704,-0.04696 0.047,-0.02348 0.0704,-0.02348 0.0704,-0.02348 0.0704,0 0.0704,-0.02348 0.047,-0.02348 0.0939,0 0.0704,0 0.0704,-0.02348 0.0704,0 c 0.1174,0 0.68094,0 1.17403,0.305249 -0.65746,0.117404 -1.12707,0.70442 -1.12707,1.267957 0,0.37569 0.25829,0.821823 0.89227,0.821823 0.51657,0 1.26795,-0.422652 1.26795,-1.361879 0,-1.220995 -1.38536,-1.549724 -2.1837,-1.549724 -1.36188,0 -2.1837,1.244475 -2.44199,1.784531 -0.58702,-1.549725 -1.85497,-1.784531 -2.53591,-1.784531 -2.41851,0 -3.75691,3.029006 -3.75691,3.592543 0,0.234806 0.23481,0.234806 0.28177,0.234806 0.18784,0 0.25829,-0.04696 0.30525,-0.258287 0.79834,-2.465471 2.32458,-3.052488 3.12293,-3.052488 0.44613,0 1.26795,0.211326 1.26795,1.573206 0,0.7279 -0.39917,2.277625 -1.26795,5.541439 -0.37569,1.455801 -1.19752,2.441989 -2.20719,2.441989 -0.14088,0 -0.68094,0 -1.17403,-0.305248 0.58702,-0.117403 1.10359,-0.610498 1.10359,-1.267956 0,-0.633979 -0.51657,-0.821824 -0.86878,-0.821824 -0.70442,0 -1.29144,0.610497 -1.29144,1.361879 0,1.080111 1.17403,1.526244 2.20718,1.526244 1.52625,0 2.37155,-1.620167 2.44199,-1.761051 0.28177,0.868785 1.12707,1.761051 2.51243,1.761051 2.41851,0 3.75691,-3.005526 3.75691,-3.592543 0,-0.234807 -0.21132,-0.234807 -0.28177,-0.234807 -0.21132,0 -0.25828,0.117403 -0.30524,0.258287 -0.77487,2.512433 -2.37155,3.075968 -3.12293,3.075968 -0.89227,0 -1.26796,-0.751381 -1.26796,-1.549724 0,-0.516575 0.14088,-1.033149 0.39917,-2.042818 z"
       id="path3063-7"
       style="font-style:normal;font-variant:normal;font-weight:normal;font-stretch:normal;letter-spacing:normal;word-spacing:normal;text-anchor:start;fill:#000000;stroke:#000000;stroke-width:0;stroke-linecap:butt;stroke-linejoin:miter;stroke-miterlimit:10.43299961;stroke-opacity:1;stroke-dasharray:none;stroke-dashoffset:0" />
    <path
       d="m 544.51512,71.857078 0,-0.02348 0,-0.02348 0,-0.02348 0,-0.02348 0,0 0,-0.02348 0,-0.02348 0,-0.02348 0,0 0,-0.02348 0,-0.02348 0,0 0,-0.02348 0,0 -0.0235,-0.02348 0,0 0,-0.02348 0,0 0,-0.02348 0,-0.02348 -0.0235,-0.02348 0,0 0,-0.02348 -0.0235,-0.02348 0,0 -0.0235,-0.02348 0,0 -0.0235,0 -0.0235,-0.02348 -0.0235,0 -0.0235,0 0,0 -0.0235,0 -0.0235,0 0,0 -0.0235,-0.02348 0,0 -0.0235,0 0,0 -0.0235,0 -0.0235,0 -0.0235,0 0,0 -0.0235,0 -0.0235,0 -0.0235,0 0,0 -0.0235,0 -0.0235,0 -0.0235,0 c -1.05663,1.03315 -2.53592,1.05663 -3.21686,1.05663 v 0.587017 c 0.39918,0 1.47929,0 2.39503,-0.469613 v 8.335639 c 0,0.540055 0,0.751381 -1.64364,0.751381 h -0.63398 v 0.587017 c 0.30525,-0.02348 2.32458,-0.07044 2.9116,-0.07044 0.51658,0 2.58287,0.04696 2.93509,0.07044 v -0.587017 h -0.6105 c -1.64365,0 -1.64365,-0.211326 -1.64365,-0.751381 z"
       id="path3065-5"
       style="font-style:normal;font-variant:normal;font-weight:normal;font-stretch:normal;letter-spacing:normal;word-spacing:normal;text-anchor:start;fill:#000000;stroke:#000000;stroke-width:0;stroke-linecap:butt;stroke-linejoin:miter;stroke-miterlimit:10.43299961;stroke-opacity:1;stroke-dasharray:none;stroke-dashoffset:0" />
    <path
       d="m 491.94498,75.352022 0.0235,-0.07044 0,-0.07044 0.0235,-0.07044 0.0235,-0.09392 0.0235,-0.09392 0.0235,-0.09392 0.047,-0.09392 0.0235,-0.117403 0.047,-0.09392 0.0235,-0.117403 0.047,-0.117404 0.047,-0.117403 0.0704,-0.117403 0.047,-0.117404 0.0704,-0.117403 0.047,-0.117404 0.0704,-0.117403 0.0704,-0.09392 0.0939,-0.117403 0.0704,-0.09392 0.0939,-0.117403 0.0939,-0.09392 0.0939,-0.09392 0.0939,-0.07044 0.1174,-0.07044 0.11741,-0.07044 0.047,-0.02348 0.0704,-0.04696 0.0704,-0.02348 0.047,-0.02348 0.0704,-0.02348 0.0705,0 0.0704,-0.02348 0.0704,-0.02348 0.0704,0 0.0704,0 0.0704,-0.02348 0.0704,0 c 0.1174,0 0.68094,0 1.17403,0.305249 -0.65746,0.117404 -1.12707,0.70442 -1.12707,1.267957 0,0.37569 0.25829,0.821823 0.89227,0.821823 0.51657,0 1.26795,-0.422652 1.26795,-1.361879 0,-1.220995 -1.38536,-1.549724 -2.1837,-1.549724 -1.3384,0 -2.16022,1.244475 -2.44199,1.784531 -0.58702,-1.549725 -1.85497,-1.784531 -2.51243,-1.784531 -2.44199,0 -3.78039,3.029006 -3.78039,3.592543 0,0.234806 0.2348,0.234806 0.28177,0.234806 0.18784,0 0.25828,-0.04696 0.30525,-0.258287 0.79834,-2.465471 2.34806,-3.052488 3.14641,-3.052488 0.42265,0 1.24447,0.211326 1.24447,1.573206 0,0.7279 -0.39917,2.277625 -1.24447,5.541439 -0.3757,1.455801 -1.19752,2.441989 -2.23067,2.441989 -0.14088,0 -0.68094,0 -1.17403,-0.305248 0.58701,-0.117403 1.10359,-0.610498 1.10359,-1.267956 0,-0.633979 -0.51658,-0.821824 -0.86879,-0.821824 -0.70442,0 -1.26795,0.610497 -1.26795,1.361879 0,1.080111 1.15055,1.526243 2.1837,1.526243 1.54973,0 2.37155,-1.620166 2.44199,-1.76105 0.28177,0.868785 1.12707,1.76105 2.53591,1.76105 2.39503,0 3.73343,-3.005525 3.73343,-3.592542 0,-0.234807 -0.21133,-0.234807 -0.28177,-0.234807 -0.21132,0 -0.25828,0.117403 -0.30525,0.258287 -0.77486,2.512433 -2.34806,3.075968 -3.09945,3.075968 -0.91574,0 -1.29143,-0.751381 -1.29143,-1.549724 0,-0.516575 0.14088,-1.033149 0.39917,-2.042818 z"
       id="path3067-0"
       style="font-style:normal;font-variant:normal;font-weight:normal;font-stretch:normal;letter-spacing:normal;word-spacing:normal;text-anchor:start;fill:#000000;stroke:#000000;stroke-width:0;stroke-linecap:butt;stroke-linejoin:miter;stroke-miterlimit:10.43299961;stroke-opacity:1;stroke-dasharray:none;stroke-dashoffset:0" />
    <path
       d="m 505.7751,82.912798 h -0.56354 c -0.047,0.375691 -0.21132,1.338399 -0.42265,1.502764 -0.14088,0.09392 -1.38536,0.09392 -1.62017,0.09392 h -3.00552 c 1.71409,-1.526244 2.27762,-1.972377 3.26381,-2.747239 1.221,-0.962708 2.34807,-1.972377 2.34807,-3.522101 0,-1.972377 -1.73757,-3.193372 -3.82735,-3.193372 -2.04282,0 -3.4047,1.432321 -3.4047,2.935084 0,0.821824 0.70442,0.915747 0.86879,0.915747 0.39917,0 0.86878,-0.281768 0.86878,-0.868785 0,-0.305249 -0.1174,-0.868785 -0.96271,-0.868785 0.4931,-1.150553 1.62017,-1.526244 2.37155,-1.526244 1.64365,0 2.48895,1.267956 2.48895,2.606355 0,1.40884 -1.00967,2.535913 -1.52624,3.122929 l -3.94475,3.897792 c -0.16437,0.140884 -0.16437,0.164365 -0.16437,0.633978 h 6.73896 z"
       id="path3069-1"
       style="font-style:normal;font-variant:normal;font-weight:normal;font-stretch:normal;letter-spacing:normal;word-spacing:normal;text-anchor:start;fill:#000000;stroke:#000000;stroke-width:0;stroke-linecap:butt;stroke-linejoin:miter;stroke-miterlimit:10.43299961;stroke-opacity:1;stroke-dasharray:none;stroke-dashoffset:0" />
    <path
       d="m 550.43187,105.23638 0.0235,-0.0704 0.0235,-0.0704 0,-0.0704 0.0235,-0.0939 0.0235,-0.0939 0.047,-0.0939 0.0235,-0.0939 0.0235,-0.1174 0.047,-0.0939 0.047,-0.11741 0.047,-0.1174 0.047,-0.1174 0.047,-0.11741 0.047,-0.1174 0.0704,-0.1174 0.0704,-0.11741 0.0704,-0.1174 0.0704,-0.0939 0.0704,-0.1174 0.0939,-0.0939 0.0704,-0.11741 0.0939,-0.0939 0.0939,-0.0939 0.11741,-0.0704 0.1174,-0.0704 0.0939,-0.0704 0.0705,-0.0235 0.047,-0.047 0.0704,-0.0235 0.0704,-0.0235 0.0704,-0.0235 0.047,0 0.0704,-0.0235 0.0704,-0.0235 0.0704,0 0.0704,0 0.0939,-0.0235 0.0704,0 c 0.1174,0 0.68094,0 1.17403,0.30525 -0.65746,0.11741 -1.12707,0.70442 -1.12707,1.26796 0,0.37569 0.25829,0.82182 0.89226,0.82182 0.4931,0 1.24448,-0.42265 1.24448,-1.36188 0,-1.22099 -1.36188,-1.54972 -2.16022,-1.54972 -1.36188,0 -2.1837,1.24447 -2.46547,1.78453 -0.56354,-1.54973 -1.8315,-1.78453 -2.51243,-1.78453 -2.44199,0 -3.75691,3.029 -3.75691,3.59254 0,0.23481 0.2348,0.23481 0.28177,0.23481 0.18784,0 0.25828,-0.047 0.30524,-0.25829 0.77487,-2.46547 2.32459,-3.05249 3.12293,-3.05249 0.44614,0 1.26796,0.21133 1.26796,1.57321 0,0.7279 -0.39917,2.27762 -1.26796,5.54144 -0.37569,1.4558 -1.19751,2.44199 -2.23066,2.44199 -0.14088,0 -0.65746,0 -1.15055,-0.30525 0.56353,-0.1174 1.08011,-0.6105 1.08011,-1.26796 0,-0.63398 -0.51658,-0.82182 -0.84531,-0.82182 -0.70442,0 -1.29143,0.6105 -1.29143,1.36188 0,1.08011 1.17403,1.52624 2.1837,1.52624 1.54972,0 2.39503,-1.62017 2.46547,-1.76105 0.28177,0.86879 1.12707,1.76105 2.51243,1.76105 2.41851,0 3.75691,-3.00552 3.75691,-3.59254 0,-0.23481 -0.23481,-0.23481 -0.30525,-0.23481 -0.18784,0 -0.23481,0.1174 -0.28177,0.25829 -0.77486,2.51243 -2.37155,3.07597 -3.12293,3.07597 -0.89226,0 -1.26795,-0.75138 -1.26795,-1.54973 0,-0.51657 0.1174,-1.03315 0.37569,-2.04282 z"
       id="path3071-6"
       style="font-style:normal;font-variant:normal;font-weight:normal;font-stretch:normal;letter-spacing:normal;word-spacing:normal;text-anchor:start;fill:#000000;stroke:#000000;stroke-width:0;stroke-linecap:butt;stroke-linejoin:miter;stroke-miterlimit:10.43299961;stroke-opacity:1;stroke-dasharray:none;stroke-dashoffset:0" />
    <path
       d="m 560.45812,110.33168 0.14088,0 0.11741,0 0.0939,0.0235 0.1174,0 0.11741,0.0235 0.0939,0.047 0.1174,0.0235 0.0939,0.047 0.0939,0.047 0.0939,0.047 0.0939,0.047 0.0939,0.047 0.0939,0.0704 0.0704,0.0704 0.0704,0.0704 0.0939,0.0939 0.0705,0.0704 0.047,0.0939 0.0704,0.0939 0.0704,0.0939 0.047,0.11741 0.047,0.1174 0.047,0.1174 0.047,0.11741 0.047,0.1174 0.0235,0.14089 0.0235,0.1174 0.0235,0.14088 0.0235,0.16437 0,0.14088 0.0235,0.16437 0,0.16436 c 0,2.01934 -1.17403,2.62984 -2.13674,2.62984 -0.65746,0 -2.08978,-0.18785 -2.77072,-1.15056 0.77486,-0.047 0.93923,-0.58701 0.93923,-0.91574 0,-0.51658 -0.37569,-0.89227 -0.89227,-0.89227 -0.44613,0 -0.91574,0.28177 -0.91574,0.93923 0,1.52624 1.6906,2.53591 3.68646,2.53591 2.27763,0 3.82735,-1.52624 3.82735,-3.14641 0,-1.29144 -1.03315,-2.55939 -2.84116,-2.93508 1.71409,-0.6105 2.34807,-1.8315 2.34807,-2.84116 0,-1.29144 -1.50277,-2.25415 -3.31078,-2.25415 -1.80801,0 -3.19337,0.89227 -3.19337,2.1837 0,0.56354 0.35221,0.86879 0.84531,0.86879 0.49309,0 0.82182,-0.37569 0.82182,-0.82183 0,-0.46961 -0.32873,-0.82182 -0.82182,-0.8453 0.56353,-0.7279 1.6906,-0.91575 2.3011,-0.91575 0.7279,0 1.76105,0.37569 1.76105,1.78454 0,0.68093 -0.2348,1.43232 -0.65746,1.94889 -0.54005,0.6105 -0.98619,0.65746 -1.80801,0.70442 -0.39917,0.0235 -0.44613,0.0235 -0.51657,0.047 -0.047,0 -0.16437,0.0235 -0.16437,0.21133 0,0.2348 0.14089,0.2348 0.42265,0.2348 z"
       id="path3073-6"
       style="font-style:normal;font-variant:normal;font-weight:normal;font-stretch:normal;letter-spacing:normal;word-spacing:normal;text-anchor:start;fill:#000000;stroke:#000000;stroke-width:0;stroke-linecap:butt;stroke-linejoin:miter;stroke-miterlimit:10.43299961;stroke-opacity:1;stroke-dasharray:none;stroke-dashoffset:0" />
    <path
       d="m 528.43743,178.42255 0,-0.0704 0.0235,-0.0704 0.0235,-0.0704 0.0235,-0.0939 0.0235,-0.0939 0.0235,-0.0939 0.0235,-0.0939 0.047,-0.1174 0.047,-0.0939 0.0235,-0.1174 0.047,-0.11741 0.047,-0.1174 0.047,-0.1174 0.0704,-0.11741 0.047,-0.1174 0.0704,-0.1174 0.0704,-0.11741 0.0704,-0.0939 0.0939,-0.1174 0.0704,-0.0939 0.0939,-0.1174 0.0939,-0.0939 0.0939,-0.0939 0.0939,-0.0704 0.1174,-0.0704 0.1174,-0.0704 0.047,-0.0235 0.0705,-0.047 0.0704,-0.0235 0.047,-0.0235 0.0704,-0.0235 0.0704,0 0.0704,-0.0235 0.0704,-0.0235 0.0704,0 0.0704,0 0.0704,-0.0235 0.0704,0 c 0.1174,0 0.68094,0 1.17403,0.30525 -0.65746,0.1174 -1.12707,0.70442 -1.12707,1.26795 0,0.37569 0.25828,0.82183 0.89226,0.82183 0.51658,0 1.26796,-0.42265 1.26796,-1.36188 0,-1.221 -1.38536,-1.54973 -2.1837,-1.54973 -1.3384,0 -2.16023,1.24448 -2.44199,1.78454 -0.58702,-1.54973 -1.85498,-1.78454 -2.53592,-1.78454 -2.41851,0 -3.7569,3.02901 -3.7569,3.59255 0,0.2348 0.2348,0.2348 0.28176,0.2348 0.18785,0 0.25829,-0.047 0.30525,-0.25828 0.79835,-2.46547 2.34807,-3.05249 3.12293,-3.05249 0.44614,0 1.26796,0.21132 1.26796,1.5732 0,0.7279 -0.39917,2.27763 -1.26796,5.54144 -0.37569,1.4558 -1.17403,2.44199 -2.20718,2.44199 -0.14088,0 -0.68094,0 -1.17403,-0.30525 0.58701,-0.1174 1.10359,-0.61049 1.10359,-1.26795 0,-0.63398 -0.51658,-0.82183 -0.86879,-0.82183 -0.70442,0 -1.29143,0.6105 -1.29143,1.36188 0,1.08011 1.17403,1.52625 2.20718,1.52625 1.54972,0 2.37155,-1.62017 2.44199,-1.76105 0.28177,0.86878 1.12707,1.76105 2.53591,1.76105 2.39503,0 3.73343,-3.00553 3.73343,-3.59255 0,-0.2348 -0.21133,-0.2348 -0.28177,-0.2348 -0.21133,0 -0.25829,0.1174 -0.30525,0.25828 -0.77486,2.51244 -2.34807,3.07597 -3.09945,3.07597 -0.91574,0 -1.29143,-0.75138 -1.29143,-1.54972 0,-0.51658 0.14088,-1.03315 0.39917,-2.04282 z"
       id="path3075-5"
       style="font-style:normal;font-variant:normal;font-weight:normal;font-stretch:normal;letter-spacing:normal;word-spacing:normal;text-anchor:start;fill:#000000;stroke:#000000;stroke-width:0;stroke-linecap:butt;stroke-linejoin:miter;stroke-miterlimit:10.43299961;stroke-opacity:1;stroke-dasharray:none;stroke-dashoffset:0" />
    <path
       d="m 542.64324,186.28858 v -0.58702 h -1.80801 v -7.27901 c 0,-0.35221 0,-0.46961 -0.35221,-0.46961 -0.21133,0 -0.28177,0 -0.44614,0.23481 l -5.40055,7.51381 v 0.58702 h 4.81354 l 0.1174,-0.58702 h -4.32044 l 4.32044,-5.98757 v 5.98757 l -0.1174,0.58702 v 1.3384 c 0,0.54005 0,0.75138 -1.3384,0.75138 h -0.44614 v 0.58702 c 0.82183,-0.047 1.87846,-0.0704 2.46548,-0.0704 0.61049,0 1.64364,0.0235 2.46547,0.0704 v -0.58702 h -0.44614 c -1.31491,0 -1.31491,-0.21133 -1.31491,-0.75138 v -1.3384 z"
       id="path3077-3"
       style="font-style:normal;font-variant:normal;font-weight:normal;font-stretch:normal;letter-spacing:normal;word-spacing:normal;text-anchor:start;fill:#000000;stroke:#000000;stroke-width:0;stroke-linecap:butt;stroke-linejoin:miter;stroke-miterlimit:10.43299961;stroke-opacity:1;stroke-dasharray:none;stroke-dashoffset:0" />
    <path
       d="m 481.41424,219.89472 0.0235,-0.0704 0.0235,-0.0704 0,-0.0704 0.0235,-0.0939 0.0235,-0.0939 0.047,-0.0939 0.0235,-0.0939 0.0235,-0.1174 0.047,-0.0939 0.047,-0.11741 0.047,-0.1174 0.047,-0.1174 0.047,-0.11741 0.047,-0.1174 0.0704,-0.1174 0.0704,-0.11741 0.0704,-0.1174 0.0704,-0.0939 0.0704,-0.1174 0.0939,-0.0939 0.0704,-0.11741 0.0939,-0.0939 0.0939,-0.0939 0.11741,-0.0704 0.0939,-0.0704 0.1174,-0.0704 0.0704,-0.0235 0.047,-0.047 0.0704,-0.0235 0.0704,-0.0235 0.047,-0.0235 0.0704,0 0.0704,-0.0235 0.0704,-0.0235 0.0704,0 0.0704,0 0.0704,-0.0235 0.0939,0 c 0.1174,0 0.68093,0 1.15055,0.30525 -0.63398,0.11741 -1.10359,0.70442 -1.10359,1.26796 0,0.37569 0.25828,0.82182 0.89226,0.82182 0.4931,0 1.24448,-0.42265 1.24448,-1.36188 0,-1.22099 -1.38536,-1.54972 -2.16022,-1.54972 -1.36188,0 -2.18371,1.24448 -2.46547,1.78453 -0.58702,-1.54972 -1.8315,-1.78453 -2.51244,-1.78453 -2.44199,0 -3.7569,3.02901 -3.7569,3.59254 0,0.23481 0.2348,0.23481 0.25828,0.23481 0.21133,0 0.28177,-0.047 0.30525,-0.25829 0.79834,-2.46547 2.34807,-3.05249 3.14641,-3.05249 0.44613,0 1.24448,0.21133 1.24448,1.57321 0,0.7279 -0.37569,2.27763 -1.24448,5.54144 -0.37569,1.4558 -1.19751,2.44199 -2.23066,2.44199 -0.14089,0 -0.68094,0 -1.15056,-0.30525 0.56354,-0.1174 1.08012,-0.6105 1.08012,-1.26796 0,-0.63397 -0.51658,-0.82182 -0.86879,-0.82182 -0.68094,0 -1.26796,0.6105 -1.26796,1.36188 0,1.08011 1.15056,1.52624 2.18371,1.52624 1.54972,0 2.39503,-1.62016 2.46547,-1.76105 0.28177,0.86879 1.10359,1.76105 2.51243,1.76105 2.41851,0 3.73343,-3.00552 3.73343,-3.59254 0,-0.23481 -0.21133,-0.23481 -0.28177,-0.23481 -0.18785,0 -0.23481,0.11741 -0.30525,0.25829 -0.75138,2.51243 -2.34807,3.07597 -3.09945,3.07597 -0.91575,0 -1.29144,-0.75138 -1.29144,-1.54973 0,-0.51657 0.14089,-1.03314 0.39918,-2.04281 z"
       id="path3079-3"
       style="font-style:normal;font-variant:normal;font-weight:normal;font-stretch:normal;letter-spacing:normal;word-spacing:normal;text-anchor:start;fill:#000000;stroke:#000000;stroke-width:0;stroke-linecap:butt;stroke-linejoin:miter;stroke-miterlimit:10.43299961;stroke-opacity:1;stroke-dasharray:none;stroke-dashoffset:0" />
    <path
       d="m 489.51507,221.32704 0.0704,0.0235 0.0939,0 0.0704,0.0235 0.0704,0.0235 0.0704,0 0.0704,0.0235 0.0704,0.0235 0.047,0 0.0704,0.0235 0.047,0 0.0704,0 0.047,0.0235 0.0704,0 0.047,0 0.047,0.0235 0.047,0 0.047,0 0.047,0 0.047,0 0.047,0 0.047,0.0235 0.0235,0 0.047,0 0.047,0 0.0235,0 0.0235,0 0.047,0 0.0235,0 0.0235,0 0.047,0 0.0235,0 0.0235,0 c 2.16022,0 3.42818,-1.47928 3.42818,-1.71409 0,-0.18784 -0.11741,-0.2348 -0.18785,-0.2348 -0.047,0 -0.0704,0 -0.14088,0.047 -0.39918,0.16436 -1.24448,0.46961 -2.46547,0.46961 -0.46962,0 -1.3384,-0.0235 -2.39503,-0.42265 -0.16437,-0.0939 -0.18785,-0.0939 -0.21133,-0.0939 -0.21133,0 -0.21133,0.18784 -0.21133,0.44613 v 4.81354 c 0,0.28177 0,0.46961 0.25829,0.46961 0.16437,0 0.16437,-0.0235 0.32873,-0.2348 0.70442,-0.89227 1.71409,-1.00967 2.27763,-1.00967 0.98618,0 1.43232,0.77486 1.50276,0.91574 0.30525,0.54006 0.39917,1.15056 0.39917,2.08978 0,0.4931 0,1.4558 -0.49309,2.18371 -0.39917,0.58701 -1.10359,0.98618 -1.92542,0.98618 -1.05663,0 -2.13674,-0.61049 -2.55939,-1.66712 0.63398,0.047 0.93923,-0.37569 0.93923,-0.79835 0,-0.70442 -0.6105,-0.8453 -0.82183,-0.8453 -0.0235,0 -0.82182,0 -0.82182,0.89226 0,1.45581 1.3384,2.93509 3.31077,2.93509 2.08978,0 3.92128,-1.54973 3.92128,-3.61602 0,-1.8315 -1.40884,-3.54559 -3.42818,-3.54559 -0.7279,0 -1.57321,0.18785 -2.30111,0.79835 z"
       id="path3081-0"
       style="font-style:normal;font-variant:normal;font-weight:normal;font-stretch:normal;letter-spacing:normal;word-spacing:normal;text-anchor:start;fill:#000000;stroke:#000000;stroke-width:0;stroke-linecap:butt;stroke-linejoin:miter;stroke-miterlimit:10.43299961;stroke-opacity:1;stroke-dasharray:none;stroke-dashoffset:0" />
    <path
       d="m 518.57864,224.7738 0,-0.0704 0.0235,-0.0704 0.0235,-0.0704 0.0235,-0.0939 0.0235,-0.0939 0.0235,-0.0939 0.0235,-0.0939 0.047,-0.1174 0.0235,-0.0939 0.047,-0.11741 0.047,-0.1174 0.047,-0.1174 0.047,-0.11741 0.0704,-0.1174 0.047,-0.1174 0.0704,-0.11741 0.0704,-0.1174 0.0704,-0.0939 0.0704,-0.1174 0.0939,-0.0939 0.0939,-0.11741 0.0939,-0.0939 0.0939,-0.0939 0.0939,-0.0704 0.11741,-0.0704 0.1174,-0.0704 0.047,-0.0235 0.0704,-0.047 0.047,-0.0235 0.0704,-0.0235 0.0704,-0.0235 0.0704,0 0.0704,-0.0235 0.0704,-0.0235 0.0704,0 0.0704,0 0.0704,-0.0235 0.0704,0 c 0.11741,0 0.68094,0 1.17404,0.30525 -0.65746,0.11741 -1.12707,0.70442 -1.12707,1.26796 0,0.37569 0.25828,0.82182 0.89226,0.82182 0.51658,0 1.26796,-0.42265 1.26796,-1.36188 0,-1.22099 -1.38536,-1.54972 -2.18371,-1.54972 -1.36187,0 -2.16022,1.24447 -2.44199,1.78453 -0.58701,-1.54972 -1.85497,-1.78453 -2.53591,-1.78453 -2.41851,0 -3.75691,3.02901 -3.75691,3.59254 0,0.23481 0.23481,0.23481 0.28177,0.23481 0.18785,0 0.25829,-0.047 0.30525,-0.25829 0.79834,-2.46547 2.32459,-3.05249 3.12293,-3.05249 0.44613,0 1.26796,0.21133 1.26796,1.57321 0,0.7279 -0.39917,2.27762 -1.26796,5.54144 -0.37569,1.4558 -1.19751,2.44199 -2.20718,2.44199 -0.14089,0 -0.68094,0 -1.17404,-0.30525 0.58702,-0.1174 1.10359,-0.6105 1.10359,-1.26796 0,-0.63398 -0.51657,-0.82182 -0.86878,-0.82182 -0.70442,0 -1.29144,0.6105 -1.29144,1.36188 0,1.08011 1.17404,1.52624 2.20719,1.52624 1.52624,0 2.37154,-1.62016 2.44199,-1.76105 0.28176,0.86879 1.12707,1.76105 2.53591,1.76105 2.39503,0 3.73343,-3.00552 3.73343,-3.59254 0,-0.23481 -0.21133,-0.23481 -0.28177,-0.23481 -0.21133,0 -0.25829,0.11741 -0.30525,0.25829 -0.77486,2.51243 -2.37155,3.07597 -3.09945,3.07597 -0.91575,0 -1.29144,-0.75138 -1.29144,-1.54973 0,-0.51657 0.14089,-1.03315 0.39917,-2.04281 z"
       id="path3083-9"
       style="font-style:normal;font-variant:normal;font-weight:normal;font-stretch:normal;letter-spacing:normal;word-spacing:normal;text-anchor:start;fill:#000000;stroke:#000000;stroke-width:0;stroke-linecap:butt;stroke-linejoin:miter;stroke-miterlimit:10.43299961;stroke-opacity:1;stroke-dasharray:none;stroke-dashoffset:0" />
    <path
       d="m 526.58555,229.96303 0,-0.23481 0,-0.25829 0.0235,-0.2348 0,-0.23481 0.0235,-0.23481 0.0235,-0.2348 0.0235,-0.23481 0.047,-0.21133 0.047,-0.2348 0.047,-0.21133 0.047,-0.21132 0.0704,-0.21133 0.047,-0.0939 0.047,-0.1174 0.047,-0.0939 0.047,-0.0939 0.047,-0.0939 0.047,-0.0939 0.047,-0.0939 0.047,-0.0939 c 0.56353,-0.89227 1.4558,-1.50277 2.48895,-1.50277 0.49309,0 1.15055,0.14089 1.47928,0.58702 -0.39917,0.0235 -0.75138,0.30525 -0.75138,0.77486 0,0.39917 0.28177,0.77486 0.77486,0.77486 0.4931,0 0.77487,-0.32872 0.77487,-0.79834 0,-0.96271 -0.68094,-1.80801 -2.30111,-1.80801 -2.34807,0 -4.76658,2.16022 -4.76658,5.65884 0,4.25 1.99586,5.51796 3.80387,5.51796 1.99586,0 3.73343,-1.52624 3.73343,-3.66298 0,-2.0663 -1.66713,-3.61603 -3.56906,-3.61603 l -0.0939,0.46962 c 0.75139,0 1.26796,0.28176 1.66713,0.89226 0.39917,0.63398 0.42265,1.31492 0.42265,2.25415 0,0.93922 0,1.62016 -0.44613,2.25414 -0.39917,0.56354 -0.91575,0.89227 -1.71409,0.89227 h 0 c -0.82182,0 -1.4558,-0.4931 -1.80801,-1.19752 -0.23481,-0.49309 -0.37569,-1.31492 -0.37569,-2.30111 0,-1.5732 0.96271,-2.79419 2.25414,-2.79419 l 0.0939,-0.46962 c -1.31492,0 -2.04282,0.86879 -2.39503,1.59669 z"
       id="path3085-1"
       style="font-style:normal;font-variant:normal;font-weight:normal;font-stretch:normal;letter-spacing:normal;word-spacing:normal;text-anchor:start;fill:#000000;stroke:#000000;stroke-width:0;stroke-linecap:butt;stroke-linejoin:miter;stroke-miterlimit:10.43299961;stroke-opacity:1;stroke-dasharray:none;stroke-dashoffset:0" />
    <path
       d="m 545.96139,240.6308 0.0235,-0.0704 0,-0.0704 0.0235,-0.0704 0.0235,-0.0939 0.0235,-0.0939 0.0235,-0.0939 0.047,-0.0939 0.0235,-0.1174 0.047,-0.0939 0.0235,-0.1174 0.047,-0.11741 0.047,-0.1174 0.0704,-0.1174 0.047,-0.11741 0.0704,-0.1174 0.047,-0.1174 0.0704,-0.11741 0.0704,-0.0939 0.0939,-0.1174 0.0704,-0.0939 0.0939,-0.1174 0.0939,-0.0939 0.0939,-0.0939 0.1174,-0.0704 0.0939,-0.0704 0.1174,-0.0704 0.0704,-0.0235 0.047,-0.047 0.0704,-0.0235 0.0704,-0.0235 0.047,-0.0235 0.0704,0 0.0704,-0.0235 0.0704,-0.0235 0.0704,0 0.0704,0 0.0704,-0.0235 0.0704,0 c 0.14089,0 0.68094,0 1.17404,0.30525 -0.65746,0.1174 -1.1036,0.70442 -1.1036,1.26795 0,0.37569 0.23481,0.82183 0.86879,0.82183 0.51657,0 1.26796,-0.42265 1.26796,-1.36188 0,-1.221 -1.38536,-1.54973 -2.18371,-1.54973 -1.3384,0 -2.16022,1.24448 -2.44199,1.78454 -0.58701,-1.54973 -1.85497,-1.78454 -2.51243,-1.78454 -2.44199,0 -3.78039,3.02901 -3.78039,3.59255 0,0.2348 0.23481,0.2348 0.28177,0.2348 0.18785,0 0.25829,-0.047 0.30525,-0.25828 0.79834,-2.46547 2.34807,-3.05249 3.14641,-3.05249 0.42265,0 1.24448,0.21132 1.24448,1.5732 0,0.7279 -0.39918,2.27763 -1.24448,5.54144 -0.37569,1.4558 -1.19751,2.44199 -2.23066,2.44199 -0.14089,0 -0.68094,0 -1.17404,-0.30525 0.58702,-0.1174 1.10359,-0.61049 1.10359,-1.26795 0,-0.63398 -0.51657,-0.82183 -0.86878,-0.82183 -0.70442,0 -1.29144,0.6105 -1.29144,1.36188 0,1.08011 1.17404,1.52625 2.20718,1.52625 1.54973,0 2.39503,-1.62017 2.46548,-1.76105 0.28176,0.86878 1.10359,1.76105 2.51243,1.76105 2.39503,0 3.73342,-3.00553 3.73342,-3.59255 0,-0.2348 -0.21132,-0.2348 -0.28176,-0.2348 -0.21133,0 -0.25829,0.1174 -0.30525,0.25828 -0.75138,2.51244 -2.34807,3.07597 -3.09945,3.07597 -0.91575,0 -1.29144,-0.75138 -1.29144,-1.54972 0,-0.51658 0.14089,-1.03315 0.39917,-2.04282 z"
       id="path3087-7"
       style="font-style:normal;font-variant:normal;font-weight:normal;font-stretch:normal;letter-spacing:normal;word-spacing:normal;text-anchor:start;fill:#000000;stroke:#000000;stroke-width:0;stroke-linecap:butt;stroke-linejoin:miter;stroke-miterlimit:10.43299961;stroke-opacity:1;stroke-dasharray:none;stroke-dashoffset:0" />
    <path
       d="m 560.2846,241.31174 0,-0.0235 0.0235,-0.0235 0,0 0.0235,-0.0235 0,-0.0235 0.0235,0 0,-0.0235 0.0235,0 0,-0.0235 0,-0.0235 0.0235,0 0,-0.0235 0,0 0,-0.0235 0.0235,-0.0235 0,0 0,-0.0235 0,-0.0235 0,-0.0235 0,0 0,-0.0235 0,-0.0235 0.0235,-0.0235 0,-0.0235 0,-0.0235 0,-0.0235 0,-0.047 0,-0.0235 0,-0.0235 0,-0.0235 0,-0.0235 0,0 0,-0.0235 0,-0.0235 0,-0.0235 h -4.29696 c -0.65746,0 -0.82182,-0.0235 -1.40884,-0.0704 -0.86879,-0.047 -0.89227,-0.16436 -0.93923,-0.44613 h -0.56353 l -0.56354,3.49862 h 0.56354 c 0.0235,-0.25829 0.18784,-1.3384 0.44613,-1.50276 0.14088,-0.0939 1.4558,-0.0939 1.69061,-0.0939 h 3.56906 c -0.51658,0.68094 -1.36188,1.71409 -1.69061,2.16022 -2.13674,2.81768 -2.34807,5.40055 -2.34807,6.36326 0,0.18785 0,0.93923 0.77487,0.93923 0.77486,0 0.77486,-0.7279 0.77486,-0.96271 v -0.63398 c 0,-3.16989 0.65746,-4.62569 1.36188,-5.51795 z"
       id="path3089-9"
       style="font-style:normal;font-variant:normal;font-weight:normal;font-stretch:normal;letter-spacing:normal;word-spacing:normal;text-anchor:start;fill:#000000;stroke:#000000;stroke-width:0;stroke-linecap:butt;stroke-linejoin:miter;stroke-miterlimit:10.43299961;stroke-opacity:1;stroke-dasharray:none;stroke-dashoffset:0" />
    <path
       d="m 508.69635,261.36689 0.0235,-0.0704 0.0235,-0.0704 0.0235,-0.0704 0.0235,-0.0939 0.0235,-0.0939 0.0235,-0.0939 0.0235,-0.0939 0.047,-0.11741 0.0235,-0.0939 0.047,-0.1174 0.047,-0.1174 0.047,-0.11741 0.047,-0.1174 0.047,-0.1174 0.0704,-0.11741 0.0704,-0.1174 0.0704,-0.1174 0.0704,-0.0939 0.0704,-0.11741 0.0939,-0.0939 0.0704,-0.1174 0.0939,-0.0939 0.1174,-0.0939 0.0939,-0.0704 0.11741,-0.0704 0.0939,-0.0704 0.0704,-0.0235 0.0704,-0.047 0.047,-0.0235 0.0704,-0.0235 0.0704,-0.0235 0.0704,0 0.047,-0.0235 0.0704,-0.0235 0.0704,0 0.0939,0 0.0704,-0.0235 0.0704,0 c 0.1174,0 0.68094,0 1.17404,0.30525 -0.65746,0.1174 -1.12708,0.70442 -1.12708,1.26796 0,0.37569 0.25829,0.82182 0.89227,0.82182 0.51657,0 1.24447,-0.42265 1.24447,-1.36188 0,-1.22099 -1.36187,-1.54972 -2.16022,-1.54972 -1.36188,0 -2.1837,1.24447 -2.46547,1.78453 -0.56353,-1.54973 -1.83149,-1.78453 -2.51243,-1.78453 -2.44199,0 -3.75691,3.029 -3.75691,3.59254 0,0.23481 0.23481,0.23481 0.28177,0.23481 0.18784,0 0.25829,-0.047 0.30525,-0.25829 0.79834,-2.46547 2.32459,-3.05249 3.12293,-3.05249 0.44613,0 1.26795,0.21133 1.26795,1.57321 0,0.7279 -0.39917,2.27762 -1.26795,5.54144 -0.37569,1.4558 -1.19752,2.44199 -2.23067,2.44199 -0.14088,0 -0.65745,0 -1.15055,-0.30525 0.58702,-0.11741 1.08011,-0.6105 1.08011,-1.26796 0,-0.63398 -0.49309,-0.82182 -0.8453,-0.82182 -0.70442,0 -1.29144,0.61049 -1.29144,1.36188 0,1.08011 1.17403,1.52624 2.20718,1.52624 1.52625,0 2.37155,-1.62017 2.44199,-1.76105 0.28177,0.86878 1.12708,1.76105 2.51244,1.76105 2.41851,0 3.7569,-3.00553 3.7569,-3.59254 0,-0.23481 -0.21132,-0.23481 -0.28176,-0.23481 -0.21133,0 -0.25829,0.1174 -0.30525,0.25829 -0.77487,2.51243 -2.37155,3.07597 -3.12293,3.07597 -0.89227,0 -1.26796,-0.75139 -1.26796,-1.54973 0,-0.51657 0.14089,-1.03315 0.39917,-2.04282 z"
       id="path3091-1"
       style="font-style:normal;font-variant:normal;font-weight:normal;font-stretch:normal;letter-spacing:normal;word-spacing:normal;text-anchor:start;fill:#000000;stroke:#000000;stroke-width:0;stroke-linecap:butt;stroke-linejoin:miter;stroke-miterlimit:10.43299961;stroke-opacity:1;stroke-dasharray:none;stroke-dashoffset:0" />
    <path
       d="m 520.08448,266.01606 0.11741,-0.0704 0.1174,-0.047 0.0939,-0.0704 0.1174,-0.047 0.11741,-0.0704 0.0939,-0.0704 0.0939,-0.047 0.11741,-0.0704 0.0939,-0.0704 0.0704,-0.0704 0.0939,-0.0704 0.0939,-0.0704 0.0704,-0.0704 0.0939,-0.0704 0.0704,-0.0704 0.0704,-0.0939 0.0704,-0.0704 0.047,-0.0704 0.0704,-0.0939 0.047,-0.0704 0.047,-0.0939 0.047,-0.0704 0.047,-0.0939 0.047,-0.0939 0.0235,-0.0939 0.0235,-0.0939 0.0235,-0.0939 0.0235,-0.0939 0.0235,-0.0939 0,-0.0939 0.0235,-0.1174 0,-0.0939 c 0,-1.59669 -1.66713,-2.44199 -3.24033,-2.44199 l -0.0235,0.46961 c 1.26795,0 2.39503,0.79834 2.39503,1.97238 0,1.4558 -1.69061,2.1837 -1.73757,2.1837 -0.0235,0 -0.0704,-0.0235 -0.16437,-0.0939 l -1.99586,-1.12707 c -0.42265,-0.25829 -0.86878,-0.68094 -0.86878,-1.29144 0,-1.03315 1.17403,-1.64365 2.37155,-1.64365 l 0.0235,-0.46961 c -1.80801,0 -3.26381,1.17403 -3.26381,2.72376 0,0.77486 0.35221,1.3384 0.65745,1.64365 0.28177,0.35221 0.39918,0.42265 1.36188,0.98618 -0.91574,0.39918 -2.53591,1.29144 -2.53591,2.98205 0,1.83149 1.87845,2.84116 3.75691,2.84116 l 0.0235,-0.51657 c -1.50276,0 -2.7942,-0.96271 -2.7942,-2.32459 0,-1.19751 0.89226,-2.13674 2.0663,-2.6768 h 0 l 2.25414,1.29144 c 0.42265,0.25829 1.24448,0.75138 1.24448,1.71409 0,1.22099 -1.36188,1.99586 -2.77072,1.99586 l -0.0235,0.51657 c 2.0663,0 3.78039,-1.31492 3.78039,-3.09945 0,-1.08011 -0.65746,-1.97237 -1.59669,-2.53591 -0.21133,-0.14088 -0.79834,-0.46961 -1.00967,-0.58702 z"
       id="path3093-8"
       style="font-style:normal;font-variant:normal;font-weight:normal;font-stretch:normal;letter-spacing:normal;word-spacing:normal;text-anchor:start;fill:#000000;stroke:#000000;stroke-width:0;stroke-linecap:butt;stroke-linejoin:miter;stroke-miterlimit:10.43299961;stroke-opacity:1;stroke-dasharray:none;stroke-dashoffset:0" />
  </g>
</svg>
